<svg id="Слой_1" data-name="Слой 1" xmlns="http://www.w3.org/2000/svg" viewBox="0 0 17.14 17.14">
    <title>instagram-fill</title>
    <defs xmlns="http://www.w3.org/2000/svg">
    <style>
      .instagram--red {
        fill: #bd0924;
        fill-rule: evenodd;
      }
    </style>
  </defs>
    <path class="instagram--red" d="M8.57,5.71A2.87,2.87,0,0,0,5.71,8.57a2.87,2.87,0,0,0,2.86,2.86,2.87,2.87,0,0,0,2.86-2.86A2.87,2.87,0,0,0,8.57,5.71Z" />
    <path class="instagram--red" d="M17.09,5A5.26,5.26,0,0,0,15.7,1.44,5.19,5.19,0,0,0,12.11.06C11.45,0,10.28,0,8.57,0S5.69,0,5,.06A5.21,5.21,0,0,0,1.44,1.44,5.21,5.21,0,0,0,.06,5Q0,6,0,8.57c0,1.71,0,2.88.06,3.54A5.19,5.19,0,0,0,1.44,15.7,5.26,5.26,0,0,0,5,17.09c.66,0,1.84.05,3.54.05s2.88,0,3.54-.05A5.25,5.25,0,0,0,15.7,15.7a5.25,5.25,0,0,0,1.39-3.59c0-.66.05-1.83.05-3.54S17.12,5.69,17.09,5Zm-5.4,6.66A4.28,4.28,0,0,1,8.57,13a4.24,4.24,0,0,1-3.11-1.28A4.25,4.25,0,0,1,4.17,8.57,4.21,4.21,0,0,1,5.46,5.46,4.21,4.21,0,0,1,8.57,4.17a4.25,4.25,0,0,1,3.12,1.29A4.24,4.24,0,0,1,13,8.57,4.28,4.28,0,0,1,11.69,11.69Zm2.18-7A1,1,0,0,1,12.12,4a1,1,0,1,1,1.75.72Z" />
</svg>