<svg width="118" height="120" viewBox="0 0 118 120" fill="none" xmlns="http://www.w3.org/2000/svg">
<rect width="118" height="120" fill="black" fill-opacity="0"/>
<rect width="57.0333" height="61.6062" fill="black" fill-opacity="0" transform="translate(26.7786 33.2942)"/>
<rect width="57.0333" height="61.6062" fill="black" fill-opacity="0" transform="translate(26.7786 33.2942)"/>
<path d="M28.7451 92.9003L81.8451 92.9003" stroke="#A7A7A7" stroke-width="2" stroke-linecap="round" stroke-linejoin="round"/>
<mask id="path-2-inside-1" fill="white">
<path d="M26.7786 61.0155C26.7786 60.7452 26.888 60.4864 27.0819 60.2981L54.5986 33.5768C54.9866 33.2 55.6039 33.2 55.9919 33.5768L83.5086 60.2981C83.7025 60.4864 83.8119 60.7452 83.8119 61.0155V65.917C83.8119 66.4601 83.3716 66.9003 82.8286 66.9003C82.2855 66.9003 81.8452 67.3406 81.8452 67.8837V87.917C81.8452 88.4601 82.2855 88.9004 82.8286 88.9004C83.3716 88.9004 83.8119 89.3406 83.8119 89.8837V93.9004C83.8119 94.4527 83.3642 94.9004 82.8119 94.9004H27.7786C27.2263 94.9004 26.7786 94.4527 26.7786 93.9004V89.8837C26.7786 89.3406 27.2188 88.9004 27.7619 88.9004C28.305 88.9004 28.7452 88.4601 28.7452 87.917V67.8837C28.7452 67.3406 28.305 66.9003 27.7619 66.9003C27.2188 66.9003 26.7786 66.4601 26.7786 65.917V61.0155Z"/>
</mask>
<path d="M54.5986 33.5768L55.9919 35.0116L54.5986 33.5768ZM55.9919 33.5768L57.3852 32.142L55.9919 33.5768ZM83.5086 60.2981L82.1152 61.7329L83.5086 60.2981ZM27.0819 60.2981L25.6886 58.8633L27.0819 60.2981ZM82.8119 92.9004H27.7786V96.9004H82.8119V92.9004ZM28.4752 61.7329L55.9919 35.0116L53.2052 32.142L25.6886 58.8633L28.4752 61.7329ZM54.5986 35.0116L82.1152 61.7329L84.9019 58.8633L57.3852 32.142L54.5986 35.0116ZM28.7786 65.917V61.0155H24.7786V65.917H28.7786ZM81.8119 61.0155V65.917H85.8119V61.0155H81.8119ZM28.7786 93.9004V89.8837H24.7786V93.9004H28.7786ZM81.8119 89.8837V93.9004H85.8119V89.8837H81.8119ZM30.7452 87.917V67.8837H26.7452V87.917H30.7452ZM79.8452 67.8837V87.917H83.8452V67.8837H79.8452ZM82.8286 64.9003C81.1809 64.9003 79.8452 66.236 79.8452 67.8837H83.8452C83.8452 68.4452 83.3901 68.9003 82.8286 68.9003V64.9003ZM82.8286 86.9004C83.3901 86.9004 83.8452 87.3556 83.8452 87.917H79.8452C79.8452 89.5647 81.1809 90.9004 82.8286 90.9004V86.9004ZM27.7619 90.9004C29.4095 90.9004 30.7452 89.5647 30.7452 87.917H26.7452C26.7452 87.3556 27.2004 86.9004 27.7619 86.9004V90.9004ZM27.7619 68.9003C27.2004 68.9003 26.7452 68.4452 26.7452 67.8837H30.7452C30.7452 66.236 29.4095 64.9003 27.7619 64.9003V68.9003ZM85.8119 89.8837C85.8119 88.2361 84.4762 86.9004 82.8286 86.9004V90.9004C82.2671 90.9004 81.8119 90.4452 81.8119 89.8837H85.8119ZM28.7786 89.8837C28.7786 90.4452 28.3234 90.9004 27.7619 90.9004V86.9004C26.1142 86.9004 24.7786 88.2361 24.7786 89.8837H28.7786ZM81.8119 65.917C81.8119 65.3555 82.2671 64.9003 82.8286 64.9003V68.9003C84.4762 68.9003 85.8119 67.5647 85.8119 65.917H81.8119ZM24.7786 65.917C24.7786 67.5647 26.1142 68.9003 27.7619 68.9003V64.9003C28.3234 64.9003 28.7786 65.3555 28.7786 65.917H24.7786ZM55.9919 35.0116C55.6039 35.3884 54.9866 35.3884 54.5986 35.0116L57.3852 32.142C56.2212 31.0116 54.3693 31.0116 53.2052 32.142L55.9919 35.0116ZM27.7786 92.9004C28.3308 92.9004 28.7786 93.3481 28.7786 93.9004H24.7786C24.7786 95.5573 26.1217 96.9004 27.7786 96.9004V92.9004ZM82.8119 96.9004C84.4688 96.9004 85.8119 95.5572 85.8119 93.9004H81.8119C81.8119 93.3481 82.2596 92.9004 82.8119 92.9004V96.9004ZM82.1152 61.7329C81.9213 61.5446 81.8119 61.2858 81.8119 61.0155H85.8119C85.8119 60.2046 85.4836 59.4282 84.9019 58.8633L82.1152 61.7329ZM25.6886 58.8633C25.1068 59.4282 24.7786 60.2046 24.7786 61.0155H28.7786C28.7786 61.2858 28.6691 61.5446 28.4752 61.7329L25.6886 58.8633Z" fill="#A7A7A7" mask="url(#path-2-inside-1)"/>
<path d="M75.9451 93.5726L80.8618 88.5726M70.0451 93.5726L79.8784 83.5726M64.1451 93.5726L79.8784 77.5726M58.2451 93.5726L79.8784 71.5726M52.3451 93.5726L80.8618 64.5726M46.4451 93.5726L79.8784 59.5726M40.5451 93.5726L76.9284 56.5726M34.6451 93.5726L73.9784 53.5725M28.7451 93.5726L70.0451 51.5725M30.7118 85.5726L67.0951 48.5725M30.7118 79.5726L64.1451 45.5725M30.7118 73.5726L61.1951 42.5725M30.7118 67.5726L58.2451 39.5725M28.7451 63.5726L54.3118 37.5725" stroke="#A7A7A7"/>
<rect width="118" height="120" fill="black" fill-opacity="0"/>
<rect width="118" height="120" fill="black" fill-opacity="0"/>
<rect width="118" height="120" fill="black" fill-opacity="0"/>
<rect width="118" height="120" fill="black" fill-opacity="0"/>
<path d="M27.5332 24.0001C28.7132 24.0001 29.4998 23.2001 29.4998 22.0001V12H31.4664C32.6464 12 33.433 11.2001 33.433 10.0001C33.433 8.8001 32.6464 8.00017 31.4664 8.00017H29.4998V2.00016C29.4998 0.799924 28.7132 0 27.5332 0C26.3532 0 25.5667 0.799924 25.5667 1.99993V21.9999C25.5664 23.2001 26.3532 24.0001 27.5332 24.0001Z" fill="#A7A7A7"/>
<path d="M116.033 90.0005H110.133V88.0005C110.133 86.8005 109.347 86.0006 108.167 86.0006C106.987 86.0006 106.2 86.8005 106.2 88.0005V90.0005H96.3669C95.1869 90.0005 94.4003 90.8004 94.4003 92.0004C94.4003 93.2004 95.1869 94.0003 96.3669 94.0003H116.033C117.213 94.0003 118 93.2004 118 92.0004C118 90.8004 117.213 90.0005 116.033 90.0005Z" fill="#A7A7A7"/>
<path d="M21.6331 108H19.6665C18.4865 108 17.7 108.8 17.7 110C17.7 111.2 18.4865 112 19.6665 112H21.6331C22.8131 112 23.5997 111.2 23.5997 110C23.5997 108.8 22.8131 108 21.6331 108Z" fill="#A7A7A7"/>
<path d="M31.4666 108H29.5C28.32 108 27.5334 108.8 27.5334 110C27.5334 111.2 28.32 112 29.5 112H31.4666C32.6466 112 33.4332 111.2 33.4332 110C33.4332 108.8 32.6466 108 31.4666 108Z" fill="#A7A7A7"/>
<path d="M41.2999 108H39.3333C38.1533 108 37.3667 108.8 37.3667 110C37.3667 111.2 38.1533 112 39.3333 112H41.2999C42.4799 112 43.2665 111.2 43.2665 110C43.2665 108.8 42.4799 108 41.2999 108Z" fill="#A7A7A7"/>
<path d="M51.1331 108H49.1665C47.9865 108 47.1999 108.8 47.1999 110C47.1999 111.2 47.9865 112 49.1665 112H51.1331C52.3131 112 53.0997 111.2 53.0997 110C53.0997 108.8 52.3131 108 51.1331 108Z" fill="#A7A7A7"/>
<path d="M60.9666 108H59C57.82 108 57.0334 108.8 57.0334 110C57.0334 111.2 57.82 112 59 112H60.9666C62.1466 112 62.9332 111.2 62.9332 110C62.9332 108.8 62.1466 108 60.9666 108Z" fill="#A7A7A7"/>
<path d="M70.7999 108H68.8333C67.6533 108 66.8667 108.8 66.8667 110C66.8667 111.2 67.6533 112 68.8333 112H70.7999C71.9799 112 72.7665 111.2 72.7665 110C72.7665 108.8 71.9799 108 70.7999 108Z" fill="#A7A7A7"/>
<path d="M80.6331 108H78.6665C77.4865 108 76.6999 108.8 76.6999 110C76.6999 111.2 77.4865 112 78.6665 112H80.6331C81.8131 112 82.5997 111.2 82.5997 110C82.5997 108.8 81.8131 108 80.6331 108Z" fill="#A7A7A7"/>
<path d="M90.4666 108H88.5C87.32 108 86.5334 108.8 86.5334 110C86.5334 111.2 87.32 112 88.5 112H90.4666C91.6466 112 92.4332 111.2 92.4332 110C92.4332 108.8 91.6466 108 90.4666 108Z" fill="#A7A7A7"/>
<path d="M100.3 108H98.3335C97.1535 108 96.3669 108.8 96.3669 110C96.3669 111.2 97.1535 112 98.3335 112H100.3C101.48 112 102.267 111.2 102.267 110C102.267 108.8 101.48 108 100.3 108Z" fill="#A7A7A7"/>
<path d="M116.033 108H108.167C106.987 108 106.2 108.8 106.2 110V118C106.2 119.2 106.987 120 108.167 120C109.347 120 110.133 119.2 110.133 118V112H116.033C117.213 112 118 111.2 118 110C118 108.8 117.213 108 116.033 108Z" fill="#A7A7A7"/>
<path d="M98.3335 12.0001H100.3C101.48 12.0001 102.267 11.2002 102.267 10.0002C102.267 8.80017 101.48 8.00024 100.3 8.00024H98.3335C97.1535 8.00024 96.3669 8.80017 96.3669 10.0002C96.3669 11.2002 97.1535 12.0001 98.3335 12.0001Z" fill="#A7A7A7"/>
<path d="M88.5 12.0001H90.4666C91.6466 12.0001 92.4332 11.2002 92.4332 10.0002C92.4332 8.80017 91.6466 8.00024 90.4666 8.00024H88.5C87.32 8.00024 86.5334 8.80017 86.5334 10.0002C86.5334 11.2002 87.32 12.0001 88.5 12.0001Z" fill="#A7A7A7"/>
<path d="M78.6665 12.0001H80.6331C81.8131 12.0001 82.5997 11.2002 82.5997 10.0002C82.5997 8.80017 81.8131 8.00024 80.6331 8.00024H78.6665C77.4865 8.00024 76.6999 8.80017 76.6999 10.0002C76.6999 11.2002 77.4865 12.0001 78.6665 12.0001Z" fill="#A7A7A7"/>
<path d="M68.8333 12.0001H70.7999C71.9799 12.0001 72.7665 11.2002 72.7665 10.0002C72.7665 8.80017 71.9799 8.00024 70.7999 8.00024H68.8333C67.6533 8.00024 66.8667 8.80017 66.8667 10.0002C66.8667 11.2002 67.6533 12.0001 68.8333 12.0001Z" fill="#A7A7A7"/>
<path d="M59 12.0001H60.9666C62.1466 12.0001 62.9332 11.2002 62.9332 10.0002C62.9332 8.80017 62.1466 8.00024 60.9666 8.00024H59C57.82 8.00024 57.0334 8.80017 57.0334 10.0002C57.0334 11.2002 57.82 12.0001 59 12.0001Z" fill="#A7A7A7"/>
<path d="M49.1665 12.0001H51.1331C52.3131 12.0001 53.0997 11.2002 53.0997 10.0002C53.0997 8.80017 52.3131 8.00024 51.1331 8.00024H49.1665C47.9865 8.00024 47.2 8.80017 47.2 10.0002C47.2 11.2002 47.9865 12.0001 49.1665 12.0001Z" fill="#A7A7A7"/>
<path d="M39.3333 12.0001H41.2999C42.4799 12.0001 43.2665 11.2002 43.2665 10.0002C43.2665 8.80017 42.4799 8.00024 41.2999 8.00024H39.3333C38.1533 8.00024 37.3667 8.80017 37.3667 10.0002C37.3667 11.2002 38.1533 12.0001 39.3333 12.0001Z" fill="#A7A7A7"/>
<path d="M19.6666 12.0001C20.8466 12.0001 21.6332 11.2002 21.6332 10.0002C21.6332 8.80017 20.8466 8.00024 19.6666 8.00024H17.7C16.52 8.00024 15.7334 8.80017 15.7334 10.0002C15.7334 11.2002 16.52 12.0001 17.7 12.0001H19.6666Z" fill="#A7A7A7"/>
<path d="M108.167 12H116.033C117.213 12 118 11.2001 118 10.0001C118 8.80011 117.213 8.00018 116.033 8.00018H110.133V2.00017C110.133 0.800168 109.347 0.000244138 108.167 0.000244138C106.987 0.000244138 106.2 0.799933 106.2 1.99994V9.99988C106.2 11.2001 106.987 12 108.167 12Z" fill="#A7A7A7"/>
<path d="M9.83341 0C8.65341 0 7.86682 0.799924 7.86682 1.99993V7.99994H1.96682C0.78659 7.99994 0 8.8001 0 10.0001C0 11.2001 0.78659 12 1.96659 12H9.83318C11.0132 12 11.7998 11.2001 11.7998 10.0001V1.99993C11.8 0.799924 11.0134 0 9.83341 0Z" fill="#A7A7A7"/>
<path d="M9.83329 17.9999C8.65329 17.9999 7.8667 18.7998 7.8667 19.9998V21.9997C7.8667 23.1997 8.65329 23.9997 9.83329 23.9997C11.0133 23.9997 11.7999 23.1997 11.7999 21.9997V19.9998C11.7999 18.7998 11.0133 17.9999 9.83329 17.9999Z" fill="#A7A7A7"/>
<path d="M9.83329 27.9999C8.65329 27.9999 7.8667 28.7998 7.8667 29.9998V31.9997C7.8667 33.1997 8.65329 33.9997 9.83329 33.9997C11.0133 33.9997 11.7999 33.1997 11.7999 31.9997V29.9998C11.7999 28.7998 11.0133 27.9999 9.83329 27.9999Z" fill="#A7A7A7"/>
<path d="M9.83329 37.9999C8.65329 37.9999 7.8667 38.7998 7.8667 39.9998V41.9997C7.8667 43.1997 8.65329 43.9997 9.83329 43.9997C11.0133 43.9997 11.7999 43.2 11.7999 42V40C11.7999 38.8 11.0133 37.9999 9.83329 37.9999Z" fill="#A7A7A7"/>
<path d="M9.83329 47.9999C8.65329 47.9999 7.8667 48.7998 7.8667 49.9998V51.9997C7.8667 53.1997 8.65329 53.9997 9.83329 53.9997C11.0133 53.9997 11.7999 53.1997 11.7999 51.9997V49.9998C11.7999 48.7998 11.0133 47.9999 9.83329 47.9999Z" fill="#A7A7A7"/>
<path d="M9.83329 57.9998C8.65329 57.9998 7.8667 58.7997 7.8667 59.9997V61.9996C7.8667 63.1996 8.65329 63.9995 9.83329 63.9995C11.0133 63.9995 11.7999 63.1996 11.7999 61.9996V59.9997C11.7999 58.7997 11.0133 57.9998 9.83329 57.9998Z" fill="#A7A7A7"/>
<path d="M9.83329 67.9998C8.65329 67.9998 7.8667 68.7997 7.8667 69.9997V71.9996C7.8667 73.1996 8.65329 73.9995 9.83329 73.9995C11.0133 73.9995 11.7999 73.1998 11.7999 71.9998V69.9999C11.7999 68.7999 11.0133 67.9998 9.83329 67.9998Z" fill="#A7A7A7"/>
<path d="M9.83329 78.0005C8.65329 78.0005 7.8667 78.8004 7.8667 80.0004V82.0003C7.8667 83.2003 8.65329 84.0003 9.83329 84.0003C11.0133 84.0003 11.7999 83.2003 11.7999 82.0003V80.0004C11.7999 78.8004 11.0133 78.0005 9.83329 78.0005Z" fill="#A7A7A7"/>
<path d="M9.83329 88.0004C8.65329 88.0004 7.8667 88.8003 7.8667 90.0003V92.0002C7.8667 93.2002 8.65329 94.0001 9.83329 94.0001C11.0133 94.0001 11.7999 93.2002 11.7999 92.0002V90.0003C11.7999 88.8003 11.0133 88.0004 9.83329 88.0004Z" fill="#A7A7A7"/>
<path d="M9.83329 98.0004C8.65329 98.0004 7.8667 98.8003 7.8667 100V102C7.8667 103.2 8.65329 104 9.83329 104C11.0133 104 11.7999 103.2 11.7999 102V100.001C11.7999 98.8005 11.0133 98.0004 9.83329 98.0004Z" fill="#A7A7A7"/>
<path d="M108.167 22C109.347 22 110.133 21.2001 110.133 20.0001V17.9999C110.133 16.7999 109.347 16 108.167 16C106.987 16 106.2 16.7999 106.2 17.9999V19.9999C106.2 21.1999 106.987 22 108.167 22Z" fill="#A7A7A7"/>
<path d="M108.167 31.9999C109.347 31.9999 110.133 31.2 110.133 30V28C110.133 26.8 109.347 26.0001 108.167 26.0001C106.987 26.0001 106.2 26.8 106.2 28V30C106.2 31.2 106.987 31.9999 108.167 31.9999Z" fill="#A7A7A7"/>
<path d="M108.167 41.9999C109.347 41.9999 110.133 41.2 110.133 40V38C110.133 36.8 109.347 36.0001 108.167 36.0001C106.987 36.0001 106.2 36.8 106.2 38V40C106.2 41.2 106.987 41.9999 108.167 41.9999Z" fill="#A7A7A7"/>
<path d="M108.167 51.9999C109.347 51.9999 110.133 51.2 110.133 50V47.9998C110.133 46.7998 109.347 45.9999 108.167 45.9999C106.987 45.9999 106.2 46.7998 106.2 47.9998V49.9997C106.2 51.1997 106.987 51.9999 108.167 51.9999Z" fill="#A7A7A7"/>
<path d="M108.167 61.9998C109.347 61.9998 110.133 61.1999 110.133 59.9999V57.9999C110.133 56.7999 109.347 56 108.167 56C106.987 56 106.2 56.7999 106.2 57.9999V59.9999C106.2 61.1999 106.987 61.9998 108.167 61.9998Z" fill="#A7A7A7"/>
<path d="M108.167 71.9998C109.347 71.9998 110.133 71.1999 110.133 69.9999V67.9999C110.133 66.7999 109.347 66 108.167 66C106.987 66 106.2 66.7999 106.2 67.9999V69.9999C106.2 71.1999 106.987 71.9998 108.167 71.9998Z" fill="#A7A7A7"/>
<path d="M108.167 82.0005C109.347 82.0005 110.133 81.2006 110.133 80.0006V78.0004C110.133 76.8004 109.347 76.0005 108.167 76.0005C106.987 76.0005 106.2 76.8004 106.2 78.0004V80.0003C106.2 81.2003 106.987 82.0005 108.167 82.0005Z" fill="#A7A7A7"/>
<path d="M108.167 104C109.347 104 110.133 103.2 110.133 102V100.001C110.133 98.8005 109.347 98.0006 108.167 98.0006C106.987 98.0006 106.2 98.8005 106.2 100.001V102C106.2 103.2 106.987 104 108.167 104Z" fill="#A7A7A7"/>
<path d="M9.83341 108H1.96659C0.78659 108 0 108.8 0 110C0 111.2 0.78659 112 1.96659 112H7.86659V118C7.86659 119.2 8.65318 120 9.83318 120C11.0132 120 11.7998 119.2 11.7998 118V110C11.8 108.8 11.0134 108 9.83341 108Z" fill="#A7A7A7"/>
</svg>
