<svg width="113" height="100" viewBox="0 0 113 100" fill="none" xmlns="http://www.w3.org/2000/svg">
<path fill-rule="evenodd" clip-rule="evenodd" d="M101.834 41.4189L56.3725 4.18549L10.9108 41.4189V43.3377H14.5478H98.1973H101.834V41.4189ZM9.09235 46.9933H12.7293V87.523C9.40934 89.4789 6.93025 92.6254 5.93467 96.3444H1.81847C0.814227 96.3444 0 97.1627 0 98.1722C0 99.1817 0.814227 100 1.81847 100H5.45541H14.5478H20.6644H27.0016H35.8735H37.141H47.2802H65.4649H75.6041H76.8716H85.7435H92.0807H98.1973H107.29H110.927C111.931 100 112.745 99.1817 112.745 98.1722C112.745 97.1627 111.931 96.3444 110.927 96.3444H106.81C105.815 92.6254 103.336 89.4789 100.016 87.523V46.9933H103.653C104.657 46.9933 105.471 46.175 105.471 45.1655V40.5504C105.471 40.001 105.225 39.4805 104.801 39.1335L57.5213 0.410824C56.8525 -0.136941 55.8926 -0.136941 55.2238 0.410824L7.94359 39.1335C7.51983 39.4805 7.27388 40.001 7.27388 40.5504V45.1655C7.27388 46.175 8.0881 46.9933 9.09235 46.9933ZM96.3789 85.9695V46.9933H16.3662V85.9695C17.7292 85.5842 19.1716 85.3775 20.6644 85.3775C25.6217 85.3775 30.0252 87.6578 32.8017 91.1869C34.1172 90.5871 35.5885 90.2517 37.141 90.2517C40.5857 90.2517 43.6293 91.9035 45.4617 94.4281V74.4106C45.4617 68.3537 50.3466 63.4436 56.3725 63.4436C62.3984 63.4436 67.2834 68.3537 67.2834 74.4106V94.4281C69.1158 91.9035 72.1594 90.2517 75.6041 90.2517C77.1566 90.2517 78.6279 90.5871 79.9434 91.1869C82.7199 87.6578 87.1234 85.3775 92.0807 85.3775C93.5735 85.3775 95.0159 85.5842 96.3789 85.9695ZM49.0987 74.4106C49.0987 70.3726 52.3554 67.0993 56.3725 67.0993C60.3897 67.0993 63.6464 70.3726 63.6464 74.4106V96.3444H49.0987V74.4106ZM25.4586 70.7549V67.0993H29.0955V70.7549H25.4586ZM25.4586 72.5827V76.2384H29.0955V72.5827H25.4586ZM30.914 76.2384H34.5509V72.5827H30.914V76.2384ZM34.5509 70.7549V67.0993H30.914V70.7549H34.5509ZM21.8216 65.2715C21.8216 64.2619 22.6359 63.4436 23.6401 63.4436H36.3694C37.3736 63.4436 38.1879 64.2619 38.1879 65.2715V78.0662C38.1879 79.0757 37.3736 79.894 36.3694 79.894H23.6401C22.6359 79.894 21.8216 79.0757 21.8216 78.0662V65.2715ZM81.8311 70.7549H78.1942V67.0993H81.8311V70.7549ZM83.6496 70.7549V67.0993H87.2865V70.7549H83.6496ZM83.6496 72.5827H87.2865V76.2384H83.6496V72.5827ZM78.1942 72.5827H81.8311V76.2384H78.1942V72.5827ZM74.5572 65.2715C74.5572 64.2619 75.3715 63.4436 76.3757 63.4436H89.105C90.1092 63.4436 90.9235 64.2619 90.9235 65.2715V78.0662C90.9235 79.0757 90.1092 79.894 89.105 79.894H76.3757C75.3715 79.894 74.5572 79.0757 74.5572 78.0662V65.2715ZM52.7356 82.6357C52.7356 83.1404 52.3285 83.5496 51.8264 83.5496C51.3243 83.5496 50.9171 83.1404 50.9171 82.6357C50.9171 82.131 51.3243 81.7218 51.8264 81.7218C52.3285 81.7218 52.7356 82.131 52.7356 82.6357ZM56.3725 25.0595C59.0632 25.0595 61.4162 26.53 62.6744 28.7151H62.6464H62.6164H62.5869H62.5574H62.5283H62.4992H62.4706H62.4422H62.4138H62.3858H62.3578H62.3303H62.3028H62.2757H62.2486H62.222H62.1953H62.1691H62.1429H62.117H62.0912H62.0657H62.0404H62.0153H61.9904H61.9658H61.9414H61.917H61.893H61.869H61.8455H61.822H61.7987H61.7756H61.7527H61.7298H61.7074H61.685H61.6628H61.6408H61.6191H61.5975H61.5762H61.5549H61.5338H61.5132H61.4923H61.4719H61.4517H61.4315H61.4115H61.3918H61.372H61.3527H61.3334H61.3143H61.2954H61.2766H61.2581H61.2397H61.2213H61.2033H61.1853H61.1676H61.15H61.1325H61.1152H61.0981H61.081H61.0643H61.0477H61.031H61.0148H60.9986H60.9824H60.9667H60.9509H60.9351H60.9198H60.9045H60.8892H60.8741H60.8592H60.8446H60.8299H60.8155H60.8011H60.7869H60.7729H60.7589H60.7451H60.7316H60.718H60.7045H60.6912H60.6781H60.6652H60.6521H60.6395H60.6268H60.6144H60.602H60.5895H60.5775H60.5653H60.5536H60.5416H60.53H60.5185H60.5069H60.4956H60.4843H60.4732H60.4621H60.4512H60.4403H60.4297H60.419H60.4086H60.3982H60.388H60.3778H60.3675H60.3576H60.3478H60.3378H60.3283H60.3185H60.3089H60.2996H60.2903H60.281H60.2719H60.2628H60.2537H60.2448H60.2359H60.2272H60.2186H60.2099H60.2015H60.1931H60.1849H60.1764H60.1682H60.1602H60.1522H60.1442H60.1362H60.1285H60.1207H60.1129H60.1054H60.0978H60.0903H60.0827H60.0754H60.0681H60.061H60.0537H60.0466H60.0395H60.0323H60.0255H60.0186H60.0117H60.0048H59.9982H59.9915H59.9848H59.9782H59.9715H59.9651H59.9587H59.9522H59.9458H59.9393H59.9331H59.9269H59.9207H59.9145H59.9083H59.902H59.8961H59.8901H59.8838H59.8778H59.8721H59.8661H59.8601H59.8543H59.8483H59.8426H59.8368H59.831H59.8252H59.8195H59.8137H59.8079H59.8022H59.7966H59.7908H59.7853H59.7795H59.774H59.7684H59.7626H59.7571H59.7515H59.7458H59.7402H59.7347H59.7291H59.7236H59.718H59.7123H59.7067H59.7012H59.6956H59.6901H59.6843H59.6787H59.6732H59.6674H59.6619H59.6563H59.6505H59.6448H59.6392H59.6334H59.6277H59.6219H59.6161H59.6104H59.6046H59.5988H59.593H59.5871H59.5813H59.5753H59.5693H59.5633H59.5573H59.5513H59.5451H59.5391H59.5329H59.5267H59.5205H59.5142H59.508H59.5016H59.4954H59.4889H59.4825H59.4758H59.4694H59.4627H59.4561H59.4494H59.4428H59.4359H59.4292H59.4223H59.4152H59.4084H59.4013H59.3942H59.3871H59.3797H59.3724H59.3651H59.3577H59.3502H59.3427H59.3351H59.3276H59.3198H59.312H59.304H59.2963H59.288H59.2801H59.2718H59.2636H59.2554H59.247H59.2385H59.2299H59.2215H59.2126H59.2039H59.195H59.1862H59.1771H59.168H59.1586H59.1493H59.14H59.1304H59.1209H59.1114H59.1016H59.0916H59.0818H59.0716H59.0616H59.0512H59.041H59.0305H59.0199H59.0092H58.9986H58.9877H58.9766H58.9655H58.9544H58.9431H58.9318H58.9202H58.9085H58.8967H58.8849H58.8729H58.8607H58.8485H58.8363H58.8239H58.8112H58.7986H58.7857H58.7728H58.7597H58.7464H58.7331H58.7196H58.706H58.6922H58.6785H58.6645H58.6503H58.6361H58.6217H58.6072H58.5924H58.5777H58.5626H58.5475H58.5324H58.5169H58.5013H58.4858H58.4698H58.4538H58.4379H58.4214H58.405H58.3886H58.3717H58.3548H58.3377H58.3207H58.3033H58.2858H58.268H58.2501H58.2321H58.2139H58.1957H58.1773H58.1584H58.1397H58.1206H58.1013H58.082H58.0625H58.043H58.023H58.003H57.9828H57.9624H57.9417H57.9211H57.9H57.8789H57.8576H57.8361H57.8145H57.7926H57.7706H57.7484H57.726H57.7033H57.6805H57.6574H57.6343H57.611H57.5872H57.5635H57.5395H57.5153H57.4909H57.4665H57.4416H57.4165H57.3914H57.3661H57.3404H57.3146H57.2887H57.2625H57.2358H57.2092H57.1823H57.1553H57.1279H57.1004H57.0727H57.0449H57.0167H56.9883H56.9597H56.9308H56.9017H56.8724H56.8429H56.8132H56.7832H56.753H56.7226H56.692H56.6611H56.63H56.5987H56.567H56.5353H56.5033H56.4709H56.4383H56.4056H56.3725H56.3395H56.3068H56.2742H56.2418H56.2098H56.1781H56.1463H56.115H56.084H56.0531H56.0225H55.9921H55.9619H55.9319H55.9022H55.8726H55.8433H55.8143H55.7854H55.7568H55.7284H55.7002H55.6724H55.6447H55.6171H55.5898H55.5628H55.5359H55.5093H55.4826H55.4564H55.4305H55.4047H55.379H55.3537H55.3286H55.3035H55.2786H55.2542H55.2298H55.2056H55.1816H55.1579H55.1341H55.1108H55.0877H55.0646H55.0418H55.0191H54.9967H54.9745H54.9525H54.9306H54.909H54.8875H54.8662H54.8451H54.824H54.8034H54.7827H54.7623H54.7421H54.7221H54.7021H54.6826H54.6631H54.6438H54.6244H54.6054H54.5867H54.5678H54.5494H54.5312H54.513H54.495H54.4771H54.4593H54.4418H54.4244H54.4073H54.3903H54.3734H54.3565H54.3401H54.3237H54.3072H54.2913H54.2753H54.2593H54.2437H54.2282H54.2127H54.1976H54.1825H54.1674H54.1527H54.1379H54.1234H54.109H54.0948H54.0806H54.0666H54.0528H54.0391H54.0255H54.012H53.9987H53.9854H53.9723H53.9594H53.9465H53.9339H53.9212H53.9088H53.8966H53.8844H53.8722H53.8602H53.8484H53.8366H53.8249H53.8133H53.802H53.7907H53.7796H53.7685H53.7574H53.7465H53.7359H53.7252H53.7145H53.7041H53.6939H53.6835H53.6735H53.6633H53.6535H53.6435H53.6337H53.6242H53.6147H53.6051H53.5958H53.5865H53.5771H53.568H53.5589H53.5501H53.5412H53.5325H53.5236H53.5152H53.5065H53.4981H53.4897H53.4815H53.4733H53.465H53.457H53.4488H53.4411H53.4331H53.4253H53.4175H53.41H53.4024H53.3949H53.3873H53.38H53.3727H53.3654H53.358H53.3509H53.3438H53.3367H53.3299H53.3228H53.3159H53.3092H53.3023H53.2957H53.289H53.2823H53.2757H53.2693H53.2626H53.2562H53.2497H53.2435H53.2371H53.2309H53.2246H53.2184H53.2122H53.206H53.2H53.1938H53.1878H53.1818H53.1758H53.1698H53.1638H53.158H53.152H53.1463H53.1405H53.1347H53.129H53.1232H53.1174H53.1116H53.1059H53.1003H53.0946H53.0888H53.0832H53.0777H53.0719H53.0664H53.0608H53.055H53.0495H53.0439H53.0384H53.0328H53.0271H53.0215H53.016H53.0104H53.0049H52.9993H52.9935H52.988H52.9825H52.9767H52.9711H52.9656H52.9598H52.9543H52.9485H52.9429H52.9372H52.9314H52.9256H52.9199H52.9141H52.9083H52.9025H52.8968H52.8908H52.885H52.879H52.873H52.8672H52.8613H52.855H52.849H52.843H52.8368H52.8306H52.8244H52.8182H52.812H52.8058H52.7993H52.7929H52.7864H52.78H52.7736H52.7669H52.7603H52.7536H52.7469H52.7403H52.7334H52.7265H52.7196H52.7127H52.7056H52.6985H52.6914H52.6841H52.677H52.6697H52.6624H52.6548H52.6473H52.6397H52.6322H52.6244H52.6166H52.6089H52.6009H52.5929H52.5849H52.5769H52.5687H52.5602H52.552H52.5436H52.5352H52.5265H52.5178H52.5092H52.5003H52.4914H52.4823H52.4732H52.4641H52.4548H52.4455H52.4362H52.4266H52.4168H52.4073H52.3973H52.3875H52.3776H52.3673H52.3571H52.3469H52.3365H52.3261H52.3154H52.3047H52.2939H52.283H52.2719H52.2608H52.2495H52.2381H52.2266H52.2151H52.2035H52.1915H52.1798H52.1676H52.1556H52.1431H52.1307H52.1183H52.1056H52.093H52.0799H52.067H52.0539H52.0406H52.027H52.0135H52H51.9862H51.9722H51.9582H51.944H51.9296H51.9152H51.9005H51.8859H51.871H51.8559H51.8406H51.8253H51.8099H51.7942H51.7784H51.7627H51.7465H51.7303H51.7141H51.6974H51.6808H51.6641H51.647H51.6299H51.6126H51.5951H51.5775H51.5598H51.5418H51.5238H51.5054H51.487H51.4685H51.4497H51.4308H51.4117H51.3924H51.3731H51.3533H51.3336H51.3136H51.2934H51.2732H51.2528H51.2319H51.2113H51.1902H51.1689H51.1476H51.126H51.1043H51.0823H51.0601H51.0377H51.0153H50.9924H50.9695H50.9464H50.9231H50.8996H50.8761H50.8521H50.8281H50.8037H50.7793H50.7547H50.7298H50.7047H50.6794H50.6539H50.6281H50.6021H50.576H50.5498H50.5231H50.4965H50.4694H50.4423H50.4148H50.3873H50.3593H50.3313H50.3029H50.2745H50.2459H50.2168H50.1877H50.1582H50.1287H50.0987H50.0707C51.3289 26.53 53.6819 25.0595 56.3725 25.0595ZM67.1338 30.5506C67.2993 31.5463 66.4674 32.3707 65.4631 32.3707H56.3725H47.282C46.2777 32.3707 45.4457 31.5463 45.6113 30.5506C46.474 25.36 50.9635 21.4038 56.3725 21.4038C61.7816 21.4038 66.2711 25.36 67.1338 30.5506Z" fill="#A7A7A7"/>
</svg>
