<svg width="117" height="117" viewBox="0 0 117 117" fill="none" xmlns="http://www.w3.org/2000/svg">
<path fill-rule="evenodd" clip-rule="evenodd" d="M107.13 113.1H115.05C116.22 113.1 117 113.88 117 115.05C117 116.22 116.22 117 115.05 117H104.715H66.2999H19.4999H13.6499H1.94988C0.779929 117 0 116.22 0 115.05C0 113.88 0.779929 113.1 1.94988 113.1H11.7V1.94964C11.7 0.779691 12.4799 -0.000237983 13.6504 5.44721e-08H66.3004C67.4704 5.44721e-08 68.2504 0.779929 68.2504 1.94988V31.2H97.5004C98.6703 31.2 99.4502 31.9799 99.4502 33.1499V98.7914C104.083 100.961 107.25 105.646 107.25 111.15C107.25 111.805 107.213 112.459 107.13 113.1ZM93.6 97.4998C94.2632 97.4998 94.9135 97.5487 95.5499 97.6376V35.0999H66.2999H56.5499V97.0855C58.0613 96.1975 59.8067 95.6962 61.5832 95.5782L61.6426 95.5748L61.6947 95.5718L61.7385 95.5693C61.8163 95.5648 61.8944 95.5604 61.9725 95.5576C62.1142 95.5524 62.2566 95.5494 62.4001 95.5494C62.5857 95.5494 62.771 95.5549 62.9563 95.5638C63.0251 95.567 63.0933 95.572 63.1615 95.577L63.2323 95.5821L63.2672 95.5846L63.28 95.5856C63.3501 95.5906 63.4201 95.5956 63.4899 95.6022C63.6073 95.613 63.7241 95.6264 63.8404 95.6408L63.8569 95.6428L63.8739 95.645C63.9196 95.6508 63.9652 95.6566 64.0107 95.6629C64.1374 95.6806 64.2634 95.6998 64.3888 95.7215C64.4207 95.727 64.4526 95.7329 64.4844 95.739L64.4972 95.7414L64.5447 95.7503C64.6642 95.7727 64.7839 95.7953 64.9024 95.8214C65.0484 95.8531 65.1937 95.8885 65.3386 95.9257L65.3595 95.931L65.3653 95.9324C65.3741 95.9344 65.3828 95.9365 65.3915 95.9388C67.0524 96.3728 68.6285 97.1614 69.976 98.2568C70.1118 98.2054 70.2489 98.1575 70.387 98.1108C71.5018 97.6582 72.8779 97.4995 74.1001 97.4995C74.5532 97.4995 75.0004 97.5268 75.4407 97.5782C75.6288 97.5268 75.8327 97.4995 76.05 97.4995C76.6057 97.4995 77.0717 97.6771 77.4097 97.9873C79.7629 98.6986 81.8442 100.16 83.4601 102.18C83.5549 102.072 83.6518 101.967 83.7503 101.862C84.3739 101.187 85.061 100.58 85.8001 100.047V99.4498C85.8001 98.2797 86.58 97.4998 87.75 97.4998C88.4321 97.4998 88.9798 97.7662 89.3196 98.2192C90.6839 97.7505 92.1279 97.4998 93.6 97.4998ZM64.35 3.89988H15.6001L15.6005 113.1H17.6913C17.9623 111.219 18.6201 109.449 19.587 107.886C19.5308 107.69 19.5004 107.478 19.5004 107.251V103.35C19.5004 102.181 20.2803 101.401 21.4504 101.401C22.6203 101.401 23.4002 102.181 23.4002 103.35V103.868C25.1474 102.66 27.2003 101.852 29.4452 101.596C29.723 99.7052 30.3827 97.9264 31.3402 96.3485C31.2488 96.1109 31.2001 95.8428 31.2001 95.5504V91.6502C31.2001 90.4803 31.98 89.7004 33.1501 89.7004C34.3201 89.7004 35.1 90.4803 35.1 91.6502V92.2588C37.3091 90.6546 39.9977 89.7001 42.8999 89.7001C43.1113 89.7001 43.3216 89.7068 43.531 89.7165C43.5804 89.719 43.6296 89.722 43.6787 89.725C43.8643 89.7357 44.0489 89.7501 44.2327 89.7684L44.2995 89.7749C45.882 89.9405 47.3964 90.3834 48.7881 91.0584C48.8136 91.0706 48.8388 91.0832 48.864 91.096L48.9202 91.1239C49.0322 91.1798 49.1437 91.2369 49.254 91.2958C50.5047 91.9555 51.6535 92.7985 52.65 93.7951V33.1499C52.65 31.9799 53.4299 31.2 54.5999 31.2H64.35V3.89988ZM30.3853 105.335L30.3706 105.336L30.3126 105.34C26.0334 105.729 22.5577 108.902 21.645 113.1H63.0723C62.6261 111.856 62.4005 110.556 62.4005 109.2C62.4005 108.998 62.4058 108.797 62.4161 108.598C62.5694 105.547 63.8885 102.696 66.2144 100.509C65.0333 99.8191 63.7173 99.4502 62.4005 99.4502C59.8654 99.4502 57.7206 100.62 56.1605 102.57L55.9655 102.765C55.6399 103.253 55.0437 103.604 54.4027 103.594C54.2633 103.598 54.1314 103.584 54.0154 103.545C53.9187 103.521 53.8254 103.491 53.7362 103.455L53.7275 103.452C53.6493 103.42 53.5743 103.384 53.5024 103.344C53.4733 103.328 53.4453 103.311 53.4172 103.294L53.411 103.29C53.3828 103.272 53.3552 103.255 53.3283 103.236C52.8999 102.947 52.5869 102.512 52.455 101.985C51.8701 97.1097 47.7751 93.5998 42.9001 93.5998C37.44 93.5998 33.1501 97.8899 33.1501 103.35C33.1501 104.52 32.3702 105.3 31.2001 105.3C31.0453 105.3 30.8914 105.304 30.7386 105.311C30.6348 105.316 30.532 105.324 30.4291 105.332L30.3853 105.335ZM66.4951 109.005C66.4951 110.35 66.9308 111.84 67.6758 113.1H103.155C103.35 112.515 103.35 111.735 103.35 111.15C103.35 105.69 99.0601 101.4 93.6002 101.4C92.0088 101.4 90.4906 101.762 89.1512 102.435C88.9413 102.641 88.6773 102.793 88.37 102.878C86.9459 103.777 85.7758 105.059 85.0202 106.665C84.7368 107.232 84.3499 107.591 83.8607 107.671C83.6551 107.776 83.4502 107.835 83.2651 107.835C82.29 107.835 81.705 107.25 81.5101 106.665C79.9501 102.375 74.8801 100.23 70.59 102.57C70.3088 102.71 70.0023 102.774 69.6977 102.772C69.3833 102.988 69.0855 103.227 68.8063 103.486C67.3451 104.906 66.4951 106.849 66.4951 109.005ZM62.4 52.6499C62.4 51.4799 63.1799 50.7 64.3499 50.7C65.52 50.7 66.2999 51.4799 66.2999 52.6499V56.55C66.2999 57.7201 65.52 58.4999 64.3499 58.4999C63.1799 58.4999 62.4 57.7201 62.4 56.55V52.6499ZM64.3499 85.8C63.1799 85.8 62.4 86.5799 62.4 87.7499V91.65C62.4 92.8199 63.1799 93.6 64.3499 93.6C65.52 93.6 66.2999 92.8199 66.2999 91.65V87.7499C66.2999 86.5799 65.52 85.8 64.3499 85.8ZM62.4 64.3499C62.4 63.1799 63.1799 62.4 64.3499 62.4C65.52 62.4 66.2999 63.1799 66.2999 64.3499V68.25C66.2999 69.4201 65.52 70.2 64.3499 70.2C63.1799 70.2 62.4 69.4201 62.4 68.25V64.3499ZM64.3499 74.1C63.1799 74.1 62.4 74.8799 62.4 76.0499V79.95C62.4 81.1201 63.1799 81.8999 64.3499 81.8999C65.52 81.8999 66.2999 81.1201 66.2999 79.95V76.0499C66.2999 74.8799 65.52 74.1 64.3499 74.1ZM62.4 40.9499C62.4 39.7799 63.1799 39 64.3499 39C65.52 39 66.2999 39.7799 66.2999 40.9499V44.85C66.2999 46.0201 65.52 46.7999 64.3499 46.7999C63.1799 46.7999 62.4 46.0201 62.4 44.85V40.9499ZM76.05 58.4999C77.2201 58.4999 78 57.7201 78 56.55V52.6499C78 51.4799 77.2201 50.7 76.05 50.7C74.8801 50.7 74.1001 51.4799 74.1001 52.6499V56.55C74.1001 57.7201 74.8801 58.4999 76.05 58.4999ZM78 44.85C78 46.0201 77.2201 46.7999 76.05 46.7999C74.8801 46.7999 74.1001 46.0201 74.1001 44.85V40.9499C74.1001 39.7799 74.8801 39 76.05 39C77.2201 39 78 39.7799 78 40.9499V44.85ZM76.05 70.2C77.2201 70.2 78 69.4201 78 68.25V64.3499C78 63.1799 77.2201 62.4 76.05 62.4C74.8801 62.4 74.1001 63.1799 74.1001 64.3499V68.25C74.1001 69.4201 74.8801 70.2 76.05 70.2ZM78 79.95C78 81.1201 77.2201 81.8999 76.05 81.8999C74.8801 81.8999 74.1001 81.1201 74.1001 79.95V76.0499C74.1001 74.8799 74.8801 74.1 76.05 74.1C77.2201 74.1 78 74.8799 78 76.0499V79.95ZM76.05 93.6C77.2201 93.6 78 92.8199 78 91.65V87.7499C78 86.5799 77.2201 85.8 76.05 85.8C74.8801 85.8 74.1001 86.5799 74.1001 87.7499V91.65C74.1001 92.8199 74.8801 93.6 76.05 93.6ZM89.7 68.25C89.7 69.4201 88.9201 70.2 87.75 70.2C86.58 70.2 85.8001 69.4201 85.8001 68.25V64.3499C85.8001 63.1799 86.58 62.4 87.75 62.4C88.9201 62.4 89.7 63.1799 89.7 64.3499V68.25ZM87.75 58.4999C88.9201 58.4999 89.7 57.7201 89.7 56.55V52.6499C89.7 51.4799 88.9201 50.7 87.75 50.7C86.58 50.7 85.8001 51.4799 85.8001 52.6499V56.55C85.8001 57.7201 86.58 58.4999 87.75 58.4999ZM89.7 91.65C89.7 92.8199 88.9201 93.6 87.75 93.6C86.58 93.6 85.8001 92.8199 85.8001 91.65V87.7499C85.8001 86.5799 86.58 85.8 87.75 85.8C88.9201 85.8 89.7 86.5799 89.7 87.7499V91.65ZM87.75 81.8999C88.9201 81.8999 89.7 81.1201 89.7 79.95V76.0499C89.7 74.8799 88.9201 74.1 87.75 74.1C86.58 74.1 85.8001 74.8799 85.8001 76.0499V79.95C85.8001 81.1201 86.58 81.8999 87.75 81.8999ZM89.7 44.85C89.7 46.0201 88.9201 46.7999 87.75 46.7999C86.58 46.7999 85.8001 46.0201 85.8001 44.85V40.9499C85.8001 39.7799 86.58 39 87.75 39C88.9201 39 89.7 39.7799 89.7 40.9499V44.85ZM21.45 74.0999C22.6201 74.0999 23.4 73.3201 23.4 72.15V68.2499C23.4 67.0799 22.6201 66.3 21.45 66.3C20.28 66.3 19.5001 67.0799 19.5001 68.2499V72.15C19.4999 73.3198 20.28 74.0999 21.45 74.0999ZM23.4 83.85C23.4 85.02 22.6201 85.8 21.45 85.8C20.28 85.8 19.4999 85.0198 19.5001 83.85V79.9499C19.5001 78.7799 20.28 78 21.45 78C22.6201 78 23.4 78.7799 23.4 79.9499V83.85ZM21.45 97.5C22.6201 97.5 23.4 96.7202 23.4 95.5501V91.65C23.4 90.48 22.6201 89.7001 21.45 89.7001C20.28 89.7001 19.5001 90.48 19.5001 91.65V95.5501C19.4999 96.7199 20.28 97.5 21.45 97.5ZM23.4 13.6499C23.4 14.82 22.6201 15.5998 21.45 15.5998C20.28 15.5998 19.4999 14.8197 19.5001 13.6499V9.74976C19.5001 8.57981 20.28 7.79988 21.45 7.79988C22.6201 7.79988 23.4 8.57981 23.4 9.74976V13.6499ZM21.45 27.2998C22.6201 27.2998 23.4 26.52 23.4 25.3499V21.4498C23.4 20.2798 22.6201 19.4999 21.45 19.4999C20.28 19.4999 19.5001 20.2798 19.5001 21.4498V25.3499C19.4999 26.5197 20.28 27.2998 21.45 27.2998ZM23.4 37.05C23.4 38.2201 22.6201 39 21.45 39C20.28 39 19.4999 38.2198 19.5001 37.05V33.1499C19.5001 31.9799 20.28 31.2 21.45 31.2C22.6201 31.2 23.4 31.9799 23.4 33.1499V37.05ZM21.45 50.6999C22.6201 50.6999 23.4 49.9201 23.4 48.75V44.8499C23.4 43.6799 22.6201 42.9 21.45 42.9C20.28 42.9 19.5001 43.6799 19.5001 44.8499V48.75C19.4999 49.9198 20.28 50.6999 21.45 50.6999ZM23.4 60.45C23.4 61.6201 22.6201 62.3999 21.45 62.3999C20.28 62.3999 19.4999 61.6198 19.5001 60.45V56.5499C19.5001 55.3799 20.28 54.6 21.45 54.6C22.6201 54.6 23.4 55.3799 23.4 56.5499V60.45ZM33.1501 27.2998C34.3202 27.2998 35.1001 26.52 35.1001 25.3499V21.4498C35.1001 20.2798 34.3202 19.4999 33.1501 19.4999C31.9802 19.4999 31.2002 20.2798 31.2002 21.4498V25.3499C31.2 26.5197 31.9802 27.2998 33.1501 27.2998ZM35.1001 13.6499C35.1001 14.82 34.3202 15.5998 33.1501 15.5998C31.9802 15.5998 31.2 14.8197 31.2002 13.6499V9.74976C31.2002 8.57981 31.9802 7.79988 33.1501 7.79988C34.3202 7.79988 35.1001 8.57981 35.1001 9.74976V13.6499ZM33.1501 50.6999C34.3202 50.6999 35.1001 49.9201 35.1001 48.75V44.8499C35.1001 43.6799 34.3202 42.9 33.1501 42.9C31.9802 42.9 31.2002 43.6799 31.2002 44.8499V48.75C31.2 49.9198 31.9802 50.6999 33.1501 50.6999ZM35.1001 37.05C35.1001 38.2201 34.3202 39 33.1501 39C31.9802 39 31.2 38.2198 31.2002 37.05V33.1499C31.2002 31.9799 31.9802 31.2 33.1501 31.2C34.3202 31.2 35.1001 31.9799 35.1001 33.1499V37.05ZM33.1501 62.3999C34.3202 62.3999 35.1001 61.6201 35.1001 60.45V56.5499C35.1001 55.3799 34.3202 54.6 33.1501 54.6C31.9802 54.6 31.2002 55.3799 31.2002 56.5499V60.45C31.2 61.6198 31.9802 62.3999 33.1501 62.3999ZM35.1001 72.15C35.1001 73.3201 34.3202 74.0999 33.1501 74.0999C31.9802 74.0999 31.2 73.3198 31.2002 72.15V68.2499C31.2002 67.0799 31.9802 66.3 33.1501 66.3C34.3202 66.3 35.1001 67.0799 35.1001 68.2499V72.15ZM33.1501 85.8C34.3202 85.8 35.1001 85.02 35.1001 83.85V79.9499C35.1001 78.7799 34.3202 78 33.1501 78C31.9802 78 31.2002 78.7799 31.2002 79.9499V83.85C31.2 85.0198 31.9802 85.8 33.1501 85.8ZM46.8 37.05C46.8 38.2201 46.0201 39 44.85 39C43.68 39 42.8999 38.2198 42.9001 37.05V33.1499C42.9001 31.9799 43.68 31.2 44.85 31.2C46.0201 31.2 46.8 31.9799 46.8 33.1499V37.05ZM44.85 27.2998C46.0201 27.2998 46.8 26.52 46.8 25.3499V21.4498C46.8 20.2798 46.0201 19.4999 44.85 19.4999C43.68 19.4999 42.9001 20.2798 42.9001 21.4498V25.3499C42.8999 26.5197 43.68 27.2998 44.85 27.2998ZM46.8 13.6499C46.8 14.82 46.0201 15.5998 44.85 15.5998C43.68 15.5998 42.8999 14.8197 42.9001 13.6499V9.74976C42.9001 8.57981 43.68 7.79988 44.85 7.79988C46.0201 7.79988 46.8 8.57981 46.8 9.74976V13.6499ZM44.85 85.8C46.0201 85.8 46.8 85.02 46.8 83.85V79.9499C46.8 78.7799 46.0201 78 44.85 78C43.68 78 42.9001 78.7799 42.9001 79.9499V83.85C42.8999 85.0198 43.68 85.8 44.85 85.8ZM46.8 72.15C46.8 73.3201 46.0201 74.0999 44.85 74.0999C43.68 74.0999 42.8999 73.3198 42.9001 72.15V68.2499C42.9001 67.0799 43.68 66.3 44.85 66.3C46.0201 66.3 46.8 67.0799 46.8 68.2499V72.15ZM44.85 62.3999C46.0201 62.3999 46.8 61.6201 46.8 60.45V56.5499C46.8 55.3799 46.0201 54.6 44.85 54.6C43.68 54.6 42.9001 55.3799 42.9001 56.5499V60.45C42.8999 61.6198 43.68 62.3999 44.85 62.3999ZM46.8 48.75C46.8 49.9201 46.0201 50.6999 44.85 50.6999C43.68 50.6999 42.8999 49.9198 42.9001 48.75V44.8499C42.9001 43.6799 43.68 42.9 44.85 42.9C46.0201 42.9 46.8 43.6799 46.8 44.8499V48.75ZM56.55 27.2998C57.7201 27.2998 58.5 26.52 58.5 25.3499V21.4498C58.5 20.2798 57.7201 19.4999 56.55 19.4999C55.38 19.4999 54.6001 20.2798 54.6001 21.4498V25.3499C54.5999 26.5197 55.38 27.2998 56.55 27.2998ZM58.5 13.6499C58.5 14.82 57.7201 15.5998 56.55 15.5998C55.38 15.5998 54.5999 14.8197 54.6001 13.6499V9.74976C54.6001 8.57981 55.38 7.79988 56.55 7.79988C57.7201 7.79988 58.5 8.57981 58.5 9.74976V13.6499Z" fill="#A7A7A7"/>
<path d="M30.3706 105.336L30.3853 105.335L30.4291 105.332C30.532 105.324 30.6348 105.316 30.7386 105.311C30.8914 105.304 31.0453 105.3 31.2001 105.3C32.3702 105.3 33.1501 104.52 33.1501 103.35C33.1501 97.8899 37.44 93.5998 42.9001 93.5998C47.7751 93.5998 51.8701 97.1097 52.455 101.985C52.5869 102.512 52.8999 102.947 53.3283 103.236C53.3552 103.255 53.3828 103.272 53.411 103.29L53.4172 103.294C53.4453 103.311 53.4733 103.328 53.5024 103.344C53.5743 103.384 53.6493 103.42 53.7275 103.452L53.7362 103.455C53.8254 103.491 53.9187 103.521 54.0154 103.545C54.1314 103.584 54.2633 103.598 54.4027 103.594C55.0437 103.604 55.6399 103.253 55.9655 102.765L56.1605 102.57C57.7206 100.62 59.8654 99.4502 62.4005 99.4502C63.7173 99.4502 65.0333 99.8191 66.2144 100.509C63.8885 102.696 62.5694 105.547 62.4161 108.598C62.4058 108.797 62.4005 108.998 62.4005 109.2C62.4005 110.556 62.6261 111.856 63.0723 113.1H21.645C22.5577 108.902 26.0334 105.729 30.3126 105.34L30.3706 105.336Z" fill="#A7A7A7"/>
<path d="M67.6758 113.1C66.9308 111.84 66.4951 110.35 66.4951 109.005C66.4951 106.849 67.3451 104.906 68.8063 103.486C69.0855 103.227 69.3833 102.988 69.6977 102.772C70.0023 102.774 70.3088 102.71 70.59 102.57C74.8801 100.23 79.9501 102.375 81.5101 106.665C81.705 107.25 82.29 107.835 83.2651 107.835C83.4502 107.835 83.6551 107.776 83.8607 107.671C84.3499 107.591 84.7368 107.232 85.0202 106.665C85.7758 105.059 86.9459 103.777 88.37 102.878C88.6773 102.793 88.9413 102.641 89.1512 102.435C90.4906 101.762 92.0088 101.4 93.6002 101.4C99.0601 101.4 103.35 105.69 103.35 111.15C103.35 111.735 103.35 112.515 103.155 113.1H67.6758Z" fill="#A7A7A7"/>
</svg>
