<svg width="111" height="108" viewBox="0 0 111 108" fill="none" xmlns="http://www.w3.org/2000/svg">
<path fill-rule="evenodd" clip-rule="evenodd" d="M57.2903 0V5.38007C57.7652 5.38007 58.2205 5.56899 58.5564 5.90536L60.3467 7.69871C60.7914 8.1441 60.97 8.79055 60.8176 9.40176L59.0273 16.5752C58.8833 17.1525 58.4689 17.6051 57.9398 17.8115C58.1096 18.0078 58.3144 18.2165 58.5564 18.4588L58.6031 18.5057C59.5173 19.4207 60.871 20.7755 60.871 23.3136C60.871 24.6102 60.4131 25.7995 59.6506 26.7284L89.3157 56.4438L90.3549 56.9882C90.9791 57.3153 91.3548 57.9782 91.3145 58.6824L91.2968 58.9938C91.3167 59.186 91.306 59.3808 91.2641 59.5702L91.1653 61.3051C91.1089 62.2939 90.2631 63.0485 89.2762 62.9905L18.855 58.8501C17.8678 58.7921 17.1134 57.9433 17.1696 56.9545L17.3191 54.3318C17.359 53.6276 17.8073 53.0131 18.4647 52.7614L20.024 52.1642L51.8628 27.2723C50.7969 26.2891 50.129 24.8795 50.129 23.3136C50.129 22.3231 50.9307 21.5203 51.9194 21.5203C52.9081 21.5203 53.7097 22.3231 53.7097 23.3136C53.7097 24.0588 54.1634 24.6978 54.8092 24.9686L55.2937 24.5899C55.7883 24.2033 56.4286 24.1151 56.9879 24.3112C57.1789 24.026 57.2903 23.6828 57.2903 23.3136C57.2903 22.3088 56.9007 21.8728 56.0243 20.995L55.9775 20.9481C55.3072 20.2774 54.4007 19.3701 53.9647 17.9336H53.7097C52.8882 17.9336 52.172 17.3735 51.9729 16.5752L50.1826 9.40176C50.03 8.79055 50.2088 8.1441 50.6535 7.69871L52.4439 5.90536C52.7795 5.56899 53.235 5.38007 53.7097 5.38007V0H57.2903ZM21.6753 55.4231L21.7981 55.327L55.1103 42.5682L86.9742 59.2623L21.6753 55.4231ZM31.4329 47.7945L55.8814 28.6803C56.0783 28.6665 56.2721 28.642 56.4627 28.6076L78.6992 50.8815L56.0496 39.0151C55.5946 38.7767 55.0596 38.7453 54.5806 38.9288L31.4329 47.7945ZM55.5 14.3468H55.8925L57.098 9.51691L56.5488 8.96678H54.4512L53.9022 9.51691L55.1075 14.3468H55.5ZM22.558 95.0329C20.7102 96.0103 19.1009 97.351 17.835 98.9544C16.5399 98.366 15.0916 98.0368 13.5629 98.0368C9.75979 98.0368 6.45342 100.075 4.76822 103.073C4.5971 103.377 4.44281 103.692 4.30622 104.015C4.2507 104.146 4.19825 104.279 4.14864 104.413H1.79032C0.801624 104.413 0 105.216 0 106.207C0 107.197 0.801624 108 1.79032 108H109.21C110.198 108 111 107.197 111 106.207C111 105.216 110.198 104.413 109.21 104.413H105.274C103.827 98.0241 98.1227 93.2545 91.3064 93.2545C90.3254 93.2545 89.3675 93.3533 88.442 93.5415V66.155C88.442 65.1645 87.6404 64.3616 86.6517 64.3616H24.3483C23.3596 64.3616 22.558 65.1645 22.558 66.155V95.0329ZM84.8613 94.7857C81.2217 96.6259 78.4728 99.9762 77.4352 104.015H63.7354V87.9541C63.7354 83.3982 60.0484 79.7047 55.5 79.7047C50.9516 79.7047 47.2646 83.3982 47.2646 87.9541V104.015H44.2862C42.624 97.8268 36.7615 93.2545 29.7844 93.2545C28.5269 93.2545 27.3057 93.403 26.1387 93.6828V67.9483H84.8613V94.7857ZM60.1548 104.015V87.9541C60.1548 85.379 58.0707 83.2914 55.5 83.2914C52.9293 83.2914 50.8452 85.379 50.8452 87.9541V104.015H60.1548ZM33.0016 83.2914V88.6715H38.1936V83.2914H33.0016ZM31.2113 79.7047C30.2226 79.7047 29.421 80.5076 29.421 81.4981V90.4649C29.421 91.4554 30.2226 92.2582 31.2113 92.2582H39.9839C40.9726 92.2582 41.7743 91.4554 41.7743 90.4649V81.4981C41.7743 80.5076 40.9726 79.7047 39.9839 79.7047H31.2113ZM72.8064 83.2914V88.6715H77.9984V83.2914H72.8064ZM71.0161 79.7047C70.0274 79.7047 69.2257 80.5076 69.2257 81.4981V90.4649C69.2257 91.4554 70.0274 92.2582 71.0161 92.2582H79.7887C80.7774 92.2582 81.579 91.4554 81.579 90.4649V81.4981C81.579 80.5076 80.7774 79.7047 79.7887 79.7047H71.0161Z" fill="#A7A7A7"/>
</svg>
