<svg width="113" height="100" viewBox="0 0 113 100" fill="none" xmlns="http://www.w3.org/2000/svg">
<path fill-rule="evenodd" clip-rule="evenodd" d="M5.94797 96.309H5.46774H1.82258C0.815956 96.309 0 97.1352 0 98.1545C0 99.1738 0.815956 100 1.82258 100H5.46774H5.94797H8.74191H14.5806H20.7112H27.0626H35.9546H37.2249H47.3871H51.0323H54.6774V98.1545V96.309V67.0132V63.2426V46.4798V42.7888V31.7156V28.0246V24.5663V20.7956V4.76114V2.18728V0L52.0264 2.18728L51.0323 3.00754L7.96167 38.5439C7.53683 38.8943 7.29032 39.4197 7.29032 39.9745V44.6343C7.29032 45.6535 8.10628 46.4798 9.1129 46.4798H12.7581V50.1709V87.4021C9.43061 89.377 6.94581 92.5539 5.94797 96.309ZM18.3849 34.7052L10.9355 42.2483V42.7888H12.7581H13.2918L33.9913 21.8287L18.3849 34.7052ZM47.9109 10.344L15.8695 42.7888H16.4032V45.1748L51.0323 10.1098V7.76868L47.9109 10.344ZM51.0323 12.72L16.4032 47.7849V50.7113L51.0323 15.6464V12.72ZM51.0323 18.2565L16.4032 53.3215V56.2479L51.0323 21.183V20.7956V18.2565ZM51.0323 23.7931L16.4032 58.858V61.7845L51.0323 26.7195V24.5663V23.7931ZM51.0323 29.3297L16.4032 64.3946V67.321L51.0323 32.2561V31.7156V29.3297ZM51.0323 34.8662L16.4032 69.9312V72.8576L51.0323 37.7927V34.8662ZM51.0323 40.4028L16.4032 75.4677V78.3942L51.0323 43.3292V42.7888V40.4028ZM51.0323 45.9394L16.4032 81.0043V83.9307L51.0323 48.8658V46.4798V45.9394ZM51.0323 51.4759L16.4032 86.5409V87.4021V89.4673L51.0323 54.4024V51.4759ZM51.0323 57.0125L12.2243 96.309H14.5806H15.1144L51.0323 59.9389V57.0125ZM51.0323 62.5491L17.6921 96.309H20.5821L51.0323 65.4755V63.2426V62.5491ZM51.0323 68.0857L23.1598 96.309H26.0499L51.0323 71.0121V68.0857ZM51.0323 73.6222L28.6276 96.309H31.5176L51.0323 76.5487V73.6222ZM51.0323 79.1588L34.0953 96.309H35.9546H36.9853L51.0323 82.0852V79.1588ZM51.0323 84.6954L39.563 96.309H42.4531L51.0323 87.6218V84.6954ZM51.0323 90.2319L45.0308 96.309H47.3871H47.9208L51.0323 93.1584V90.2319ZM51.0323 95.7685L50.4985 96.309H51.0323V95.7685ZM9.85199 96.101L16.2844 89.5876L14.6013 90.5865C12.4192 91.8816 10.7487 93.829 9.85199 96.101ZM58.3226 100H65.6129H75.775H77.0454H85.9374H92.2888H98.4194H107.532H111.177C112.184 100 113 99.1738 113 98.1545C113 97.1352 112.184 96.309 111.177 96.309H107.052C106.054 92.5539 103.569 89.377 100.242 87.4021V46.4798H103.887C104.894 46.4798 105.71 45.6535 105.71 44.6343V39.9745C105.71 39.4197 105.463 38.8943 105.038 38.5439L58.3226 0V4.76114L102.065 40.8513V42.7888H98.4194H58.3226V46.4798H96.5968V85.8337C95.2307 85.4447 93.785 85.2358 92.2888 85.2358C87.3203 85.2358 82.907 87.5382 80.1241 91.1015C78.8057 90.496 77.3313 90.1572 75.775 90.1572C72.3223 90.1572 69.2721 91.8249 67.4355 94.374V74.1627C67.4355 68.6759 63.4946 64.1212 58.3226 63.2426V67.0132C61.4669 67.8327 63.7903 70.7229 63.7903 74.1627V96.309H58.3226V100ZM58.3226 31.7156H65.6111C66.6176 31.7156 67.4515 30.8832 67.2855 29.8779C66.52 25.2373 62.9044 21.5739 58.3226 20.7956V24.5663C60.2375 25.0656 61.8492 26.3331 62.8161 28.0246H58.3226V31.7156ZM82.0161 70.4716H78.371V66.7806H82.0161V70.4716ZM83.8387 70.4716V66.7806H87.4839V70.4716H83.8387ZM83.8387 72.3172H87.4839V76.0082H83.8387V72.3172ZM78.371 72.3172H82.0161V76.0082H78.371V72.3172ZM74.7258 64.9351C74.7258 63.9158 75.5419 63.0895 76.5484 63.0895H89.3064C90.313 63.0895 91.129 63.9158 91.129 64.9351V77.8537C91.129 78.873 90.313 79.6992 89.3064 79.6992H76.5484C75.5419 79.6992 74.7258 78.873 74.7258 77.8537V64.9351Z" fill="#A7A7A7"/>
</svg>
