<svg width="101" height="91" viewBox="0 0 101 91" fill="none" xmlns="http://www.w3.org/2000/svg">
<path fill-rule="evenodd" clip-rule="evenodd" d="M35.8485 86.8336L3.34882 86.6822L3.47307 60.0158L9.30636 60.043C10.2268 60.0472 10.9765 59.3046 10.9808 58.384C10.9851 57.4636 10.2424 56.7139 9.32187 56.7097L3.48859 56.6825L3.71408 8.28237L8.61458 3.37254L36.2367 3.50122L36.163 19.3343C36.1586 20.2547 36.9013 21.0045 37.8218 21.0087C38.7423 21.013 39.492 20.2703 39.4962 19.3498L39.5699 3.51673L58.7364 3.60596L58.6626 19.4391C58.6597 20.056 58.9924 20.5962 59.4892 20.8867L59.4842 21.9431L59.461 26.9431L59.4483 29.6659C58.9488 29.9518 58.6111 30.4887 58.6082 31.1057L58.4801 58.6054C58.4759 59.5258 59.2186 60.2754 60.139 60.2798L70.9724 60.3302L70.9412 66.9968C70.937 67.9172 71.6797 68.6669 72.6002 68.6712C73.5206 68.6755 74.2703 67.9327 74.2746 67.0123L74.3056 60.3458L96.8053 60.4506L96.7021 82.6208L92.1313 87.0957L74.1814 87.0121L74.2163 79.5122C74.2207 78.5917 73.4779 77.842 72.5575 77.8378C71.6371 77.8335 70.8873 78.5761 70.883 79.4967L70.8481 86.9965L39.1818 86.8491L39.3138 58.516L39.4419 31.0164C39.4462 30.0959 38.7034 29.3463 37.783 29.3419C36.8625 29.3377 36.1129 30.0804 36.1085 31.0009L35.9883 56.8338L30.155 56.8067C29.2346 56.8024 28.4849 57.5452 28.4806 58.4656C28.4763 59.386 29.219 60.1357 30.1395 60.14L35.9728 60.1672L35.8485 86.8336ZM96.8209 57.1172L96.3327 57.1149L61.1525 21.6056L61.1559 20.8944C61.5681 20.6586 61.8699 20.2516 61.9646 19.7699L96.8309 54.9626L96.8209 57.1172ZM62.0053 17.4428L96.8418 52.6055L96.8542 49.9625L62.0176 14.8L62.0053 17.4428ZM62.0285 12.4429L96.8651 47.6055L96.8775 44.9626L62.0409 9.7999L62.0285 12.4429ZM62.0518 7.44293L96.8884 42.6056L96.9007 39.9626L62.0642 4.79996L62.0518 7.44293ZM60.4265 0.280476L98.7514 0.459007C99.6719 0.463256 100.415 1.21301 100.41 2.13345L100.146 58.7994L100.032 83.3325C100.03 83.7779 99.8497 84.204 99.5314 84.5156L93.974 89.9565C93.6606 90.2634 93.2389 90.4342 92.8003 90.4322L72.4992 90.3376L37.5076 90.1746L37.4997 90.1746L37.4918 90.1746L1.66673 90.0077C0.746181 90.0035 0.00354965 89.2538 0.00780798 88.3333L0.383883 7.58198C0.38592 7.14319 0.56094 6.72292 0.87091 6.41234L6.74688 0.525297C7.06136 0.210123 7.48899 0.0338905 7.9342 0.0360099L60.4105 0.280424C60.4132 0.280467 60.4158 0.280403 60.4185 0.280446C60.4211 0.280489 60.4239 0.280433 60.4265 0.280476ZM93.9757 57.104L91.3327 57.0917L61.1292 26.6055L61.1415 23.9626L93.9757 57.104ZM88.9758 57.0806L61.1182 28.9626L61.1149 29.6736C61.6118 29.964 61.9444 30.5044 61.9415 31.1212L61.9353 32.4426L86.3328 57.0684L88.9758 57.0806ZM83.9758 57.0574L61.9244 34.7996L61.9121 37.4426L81.3328 57.0451L83.9758 57.0574ZM78.9759 57.0341L61.9011 39.7996L61.8888 42.4425L76.3328 57.0218L78.9759 57.0341ZM73.9758 57.0108L61.8779 44.7995L61.8655 47.4425L71.3328 56.9985L72.645 57.0046C72.6482 57.0046 72.6513 57.0046 72.6545 57.0046C72.6577 57.0046 72.6607 57.0047 72.6639 57.0047L73.9758 57.0108ZM68.9759 56.9875L61.8546 49.7995L61.8422 52.4424L66.3329 56.9752L68.9759 56.9875ZM63.9759 56.9642L61.8313 54.7995L61.8212 56.9542L63.9759 56.9642ZM96.9118 37.6057L63.2481 3.62704L65.8911 3.63929L96.924 34.9627L96.9118 37.6057ZM96.935 32.6057L68.2481 3.65031L70.891 3.66257L96.9473 29.9627L96.935 32.6057ZM96.9583 27.6058L73.2479 3.67357L75.891 3.68584L96.9706 24.9628L96.9583 27.6058ZM96.9816 22.6058L78.2479 3.69686L80.8908 3.70921L96.9938 19.9629L96.9816 22.6058ZM97.0049 17.6059L83.2479 3.72014L85.8908 3.73248L97.0172 14.963L97.0049 17.6059ZM97.0281 12.606L88.2478 3.74342L90.8907 3.75577L97.0405 9.96305L97.0281 12.606ZM97.0514 7.60607L93.2478 3.76669L95.8907 3.77904L97.0638 4.96299L97.0514 7.60607Z" fill="#A7A7A7"/>
</svg>
