<svg width="99" height="100" viewBox="0 0 99 100" fill="none" xmlns="http://www.w3.org/2000/svg">
<path fill-rule="evenodd" clip-rule="evenodd" d="M94.857 47.2098C94.3392 46.5205 94.0325 45.6637 94.0325 44.7353V28.2383C94.0325 26.889 94.6806 25.6911 95.6822 24.9386V23.622L75.0611 3.93073L54.4399 23.622V24.9386C55.4415 25.6911 56.0896 26.889 56.0896 28.2383V44.7353C56.0896 45.6637 55.7829 46.5205 55.2651 47.2098H94.857ZM97.3319 50.5092C98.243 50.5092 98.9816 49.7706 98.9816 48.8595V46.385C98.9816 45.9294 98.6123 45.5601 98.1568 45.5601C97.7012 45.5601 97.3319 45.1908 97.3319 44.7353V28.2383C97.3319 27.7828 97.7012 27.4135 98.1568 27.4135C98.6123 27.4135 98.9816 27.0442 98.9816 26.5886V22.9163C98.9816 22.4656 98.7971 22.0345 98.4713 21.7232L76.2005 0.456651C75.5629 -0.152217 74.5592 -0.152217 73.9217 0.456651L51.651 21.7232C51.325 22.0345 51.1405 22.4656 51.1405 22.9163V26.5886C51.1405 27.0442 51.5098 27.4135 51.9653 27.4135C52.4209 27.4135 52.7902 27.7828 52.7902 28.2383V44.7353C52.7902 45.1908 52.4209 45.5601 51.9653 45.5601C51.5098 45.5601 51.1405 45.9294 51.1405 46.385V48.8595C51.1405 49.7706 51.8792 50.5092 52.7902 50.5092H97.3319ZM42.892 94.2261C42.892 94.7773 43.0002 95.3033 43.1963 95.784L42.2798 96.7006H39.6637L42.892 93.4723V94.2261ZM42.892 91.1393L37.3308 96.7006H34.7146L42.892 88.5232V91.1393ZM42.892 86.1903L32.3817 96.7006H29.7656L42.892 83.5742V86.1903ZM42.892 81.2412L27.4326 96.7006H24.8165L42.892 78.6251V81.2412ZM43.3546 75.8295L22.4835 96.7006H19.8674L43.9859 72.5821L44.5417 73.1128V74.4295C44.0485 74.7999 43.6412 75.2783 43.3546 75.8295ZM42.7925 71.4425L17.5344 96.7006H14.9183L41.4544 70.1647L42.7925 71.4425ZM40.2608 69.0251L12.5854 96.7006H9.96925L38.9227 67.7472L40.2608 69.0251ZM37.7293 66.6076L7.63628 96.7006H5.02017L36.3911 65.3298L37.7293 66.6076ZM33.8594 62.9122L35.1978 64.1902L4.94344 94.4444C4.94727 94.3721 4.94908 94.2993 4.94908 94.2261V91.8226L33.8594 62.9122ZM32.666 61.7727L4.94908 89.4896V86.8735L31.3279 60.4948L32.666 61.7727ZM30.1345 59.3553L4.94908 84.5406V81.9245L28.7961 58.0773L30.1345 59.3553ZM27.6028 56.9377L4.94908 79.5915V77.7291C4.94908 77.4921 4.92914 77.2598 4.89068 77.0338L26.2646 55.6599L27.6028 56.9377ZM25.0712 54.5203L4.21365 75.3778C3.96132 75.015 3.6524 74.6946 3.29939 74.4295V73.676L15.7883 61.1872L23.9206 53.4215L25.0712 54.5203ZM0 72.4071C0 71.9564 0.184463 71.5253 0.510495 71.214L22.7812 49.9475C23.4187 49.3386 24.4224 49.3386 25.06 49.9475L47.3308 71.214C47.6566 71.5253 47.8411 71.9564 47.8411 72.4071V76.0794C47.8411 76.535 47.4718 76.9043 47.0163 76.9043C46.5607 76.9043 46.1914 77.2736 46.1914 77.7291V94.2261C46.1914 94.6816 46.5607 95.0509 47.0163 95.0509C47.4718 95.0509 47.8411 95.4202 47.8411 95.8758V98.3503C47.8411 99.2614 47.1025 100 46.1914 100H1.64969C0.738657 100 0 99.2614 0 98.3503V95.8758C0 95.4202 0.369328 95.0509 0.824847 95.0509C1.28037 95.0509 1.64969 94.6816 1.64969 94.2261V77.7291C1.64969 77.2736 1.28037 76.9043 0.824847 76.9043C0.369328 76.9043 0 76.535 0 76.0794V72.4071ZM39.849 18.4513C40.0598 18.0475 39.9034 17.5492 39.4994 17.3384L32.9184 13.9033C32.5146 13.6925 32.0164 13.8489 31.8055 14.2528C31.5947 14.6567 31.7512 15.1549 32.1551 15.3657L37.0378 17.9144C26.8997 21.7246 18.9741 30.0507 15.7099 40.4433C15.5734 40.8779 15.8151 41.3409 16.2498 41.4774C16.6844 41.6139 17.1474 41.3722 17.2839 40.9376C20.3745 31.0973 27.8523 23.1977 37.4238 19.5323L34.9515 24.269C34.7406 24.6728 34.8971 25.171 35.3009 25.3819C35.7048 25.5927 36.203 25.4362 36.4139 25.0323L39.849 18.4513ZM83.2717 61.6837C83.4082 61.2491 83.1665 60.7861 82.7318 60.6496C82.2972 60.5131 81.8342 60.7547 81.6977 61.1894C78.6071 71.0297 71.1293 78.9293 61.5578 82.5947L64.0301 77.858C64.241 77.4542 64.0845 76.9559 63.6807 76.7451C63.2768 76.5343 62.7786 76.6908 62.5677 77.0946L59.1326 83.6756C58.9218 84.0795 59.0782 84.5778 59.4822 84.7886L66.0633 88.2237C66.467 88.4345 66.9652 88.2781 67.1761 87.8742C67.3869 87.4703 67.2304 86.972 66.8265 86.7613L61.9439 84.2126C72.0819 80.4023 80.0075 72.0762 83.2717 61.6837Z" fill="#A7A7A7"/>
</svg>
