<svg width="22" height="22" viewBox="0 0 22 22" fill="none" xmlns="http://www.w3.org/2000/svg">
<path d="M11.0723 5.60938C10.1035 5.60938 9.19727 5.85937 8.35352 6.35938C7.54102 6.82812 6.88477 7.48438 6.38477 8.32812C5.91602 9.14062 5.68164 10.0312 5.68164 11C5.68164 11.9688 5.91602 12.875 6.38477 13.7188C6.88477 14.5312 7.54102 15.1875 8.35352 15.6875C9.19727 16.1562 10.1035 16.3906 11.0723 16.3906C12.041 16.3906 12.9316 16.1562 13.7441 15.6875C14.5879 15.1875 15.2441 14.5312 15.7129 13.7188C16.2129 12.875 16.4629 11.9688 16.4629 11C16.4629 10.0312 16.2129 9.14062 15.7129 8.32812C15.2441 7.48438 14.5879 6.82812 13.7441 6.35938C12.9316 5.85937 12.041 5.60938 11.0723 5.60938ZM11.0723 14.5156C10.1035 14.5156 9.27539 14.1719 8.58789 13.4844C7.90039 12.7969 7.55664 11.9688 7.55664 11C7.55664 10.0312 7.90039 9.20312 8.58789 8.51562C9.27539 7.82812 10.1035 7.48438 11.0723 7.48438C12.041 7.48438 12.8691 7.82812 13.5566 8.51562C14.2441 9.20312 14.5879 10.0312 14.5879 11C14.5879 11.9688 14.2441 12.7969 13.5566 13.4844C12.8691 14.1719 12.041 14.5156 11.0723 14.5156ZM17.9629 5.375C17.9316 5.71875 17.791 6.01563 17.541 6.26562C17.3223 6.51562 17.041 6.64062 16.6973 6.64062C16.3535 6.64062 16.0566 6.51562 15.8066 6.26562C15.5566 6.01563 15.4316 5.71875 15.4316 5.375C15.4316 5.03125 15.5566 4.73437 15.8066 4.48438C16.0566 4.23438 16.3535 4.10938 16.6973 4.10938C17.041 4.10938 17.3379 4.23438 17.5879 4.48438C17.8379 4.73437 17.9629 5.03125 17.9629 5.375ZM21.5254 6.64062C21.4629 5.73438 21.3223 4.95312 21.1035 4.29688C20.8223 3.51562 20.3848 2.84375 19.791 2.28125C19.2285 1.6875 18.5566 1.25 17.7754 0.96875C17.1191 0.75 16.3379 0.625 15.4316 0.59375C14.5566 0.53125 13.1035 0.5 11.0723 0.5C9.04102 0.5 7.57227 0.53125 6.66602 0.59375C5.79102 0.625 5.02539 0.75 4.36914 0.96875C3.58789 1.25 2.90039 1.6875 2.30664 2.28125C1.74414 2.84375 1.32227 3.51562 1.04102 4.29688C0.822266 4.95312 0.681641 5.73438 0.619141 6.64062C0.587891 7.51562 0.572266 8.96875 0.572266 11C0.572266 13.0312 0.587891 14.5 0.619141 15.4062C0.681641 16.2812 0.822266 17.0469 1.04102 17.7031C1.32227 18.4844 1.74414 19.1719 2.30664 19.7656C2.90039 20.3281 3.58789 20.7344 4.36914 20.9844C5.02539 21.2344 5.79102 21.375 6.66602 21.4062C7.57227 21.4688 9.04102 21.5 11.0723 21.5C13.1035 21.5 14.5566 21.4688 15.4316 21.4062C16.3379 21.375 17.1191 21.25 17.7754 21.0312C18.5566 20.75 19.2285 20.3281 19.791 19.7656C20.3848 19.1719 20.8223 18.4844 21.1035 17.7031C21.3223 17.0469 21.4473 16.2812 21.4785 15.4062C21.541 14.5 21.5723 13.0312 21.5723 11C21.5723 8.96875 21.5566 7.51562 21.5254 6.64062ZM19.2754 17.1875C18.9004 18.125 18.2285 18.7969 17.2598 19.2031C16.7598 19.3906 15.916 19.5156 14.7285 19.5781C14.0723 19.6094 13.1035 19.625 11.8223 19.625H10.3223C9.07227 19.625 8.10352 19.6094 7.41602 19.5781C6.25977 19.5156 5.41602 19.3906 4.88477 19.2031C3.94727 18.8281 3.27539 18.1562 2.86914 17.1875C2.68164 16.6562 2.55664 15.8125 2.49414 14.6562C2.46289 13.9688 2.44727 13 2.44727 11.75V10.25C2.44727 9 2.46289 8.03125 2.49414 7.34375C2.55664 6.15625 2.68164 5.3125 2.86914 4.8125C3.24414 3.84375 3.91602 3.17188 4.88477 2.79688C5.41602 2.60938 6.25977 2.48437 7.41602 2.42188C8.10352 2.39062 9.07227 2.375 10.3223 2.375H11.8223C13.0723 2.375 14.041 2.39062 14.7285 2.42188C15.916 2.48437 16.7598 2.60938 17.2598 2.79688C18.2285 3.17188 18.9004 3.84375 19.2754 4.8125C19.4629 5.3125 19.5879 6.15625 19.6504 7.34375C19.6816 8 19.6973 8.96875 19.6973 10.25V11.75C19.6973 13 19.6816 13.9688 19.6504 14.6562C19.5879 15.8125 19.4629 16.6562 19.2754 17.1875Z" fill="white"/>
</svg>
