<svg width="15" height="25" viewBox="0 0 15 25" fill="none" xmlns="http://www.w3.org/2000/svg">
<path d="M12.9749 15.6562C11.9436 16.3125 10.5374 16.7344 8.7561 16.9219L13.303 21.4688C13.7092 21.875 13.8186 22.3281 13.6311 22.8281C13.4436 23.3594 13.0842 23.7188 12.553 23.9062C12.053 24.125 11.5999 24.0312 11.1936 23.625L7.58423 20.0156L4.02173 23.5781C3.61548 23.9844 3.14673 24.0938 2.61548 23.9062C2.08423 23.7188 1.72485 23.3594 1.53735 22.8281C1.34985 22.3281 1.47485 21.875 1.91235 21.4688L6.45923 16.9219C4.61548 16.7344 3.1936 16.3125 2.1936 15.6562C1.34985 15.0938 0.818604 14.6562 0.599854 14.3438C0.318604 13.9375 0.318604 13.4531 0.599854 12.8906C0.787354 12.4844 1.09985 12.2344 1.53735 12.1406C2.03735 12.0156 2.5686 12.1719 3.1311 12.6094L3.6936 12.9844C4.16235 13.2344 4.66235 13.4531 5.1936 13.6406C5.97485 13.8594 6.77173 13.9688 7.58423 13.9688C8.39673 13.9688 9.1936 13.8594 9.97485 13.6406C10.5061 13.4531 11.0061 13.2344 11.4749 12.9844L12.0374 12.6094C12.5999 12.1719 13.1467 12.0156 13.678 12.1406C14.0842 12.2344 14.3967 12.4844 14.6155 12.8906C14.8655 13.4531 14.8499 13.9375 14.5686 14.3438C14.3499 14.6562 13.8186 15.0938 12.9749 15.6562ZM1.49048 6.09375C1.49048 4.96875 1.7561 3.95312 2.28735 3.04688C2.84985 2.10938 3.59985 1.375 4.53735 0.84375C5.47485 0.28125 6.49048 0 7.58423 0C8.67798 0 9.6936 0.28125 10.6311 0.84375C11.5686 1.375 12.303 2.10938 12.8342 3.04688C13.3967 3.95312 13.678 4.96875 13.678 6.09375C13.678 7.1875 13.3967 8.20312 12.8342 9.14062C12.303 10.0469 11.5686 10.7812 10.6311 11.3438C9.6936 11.875 8.67798 12.1406 7.58423 12.1406C6.49048 12.1406 5.47485 11.875 4.53735 11.3438C3.59985 10.7812 2.84985 10.0469 2.28735 9.14062C1.7561 8.20312 1.49048 7.1875 1.49048 6.09375ZM4.58423 6.09375C4.58423 6.90625 4.8811 7.60937 5.47485 8.20312C6.0686 8.76562 6.77173 9.04688 7.58423 9.04688C8.39673 9.04688 9.09985 8.76562 9.6936 8.20312C10.2874 7.60937 10.5842 6.90625 10.5842 6.09375C10.5842 5.25 10.2874 4.54688 9.6936 3.98438C9.09985 3.39062 8.39673 3.09375 7.58423 3.09375C6.77173 3.09375 6.0686 3.39062 5.47485 3.98438C4.8811 4.54688 4.58423 5.25 4.58423 6.09375Z" fill="white"/>
</svg>
