<svg width="27" height="16" viewBox="0 0 27 16" fill="none" xmlns="http://www.w3.org/2000/svg">
<path d="M25.5469 1.53125C25.7344 0.84375 25.4531 0.5 24.7031 0.5H21.9375C21.375 0.5 20.9844 0.765625 20.7656 1.29688L20.2969 2.23438C19.9219 3.04687 19.5312 3.79687 19.125 4.48438C18.5312 5.45312 17.9375 6.26562 17.3438 6.92188C17.0312 7.26562 16.7812 7.5 16.5938 7.625C16.4062 7.71875 16.2344 7.76562 16.0781 7.76562C15.9531 7.76562 15.8438 7.70312 15.75 7.57812C15.6562 7.45312 15.6094 7.25 15.6094 6.96875V1.53125C15.6094 1.15625 15.5469 0.890625 15.4219 0.734375C15.3281 0.578125 15.1406 0.5 14.8594 0.5H10.5C10.3125 0.5 10.1406 0.5625 9.98438 0.6875C9.85938 0.8125 9.79688 0.96875 9.79688 1.15625C9.79688 1.3125 9.90625 1.53125 10.125 1.8125C10.3438 2.0625 10.5 2.29687 10.5938 2.51562C10.7812 2.89062 10.8906 3.32812 10.9219 3.82812V7.90625C10.9219 8.3125 10.875 8.59375 10.7812 8.75C10.7188 8.875 10.5938 8.9375 10.4062 8.9375C10.0938 8.9375 9.65625 8.59375 9.09375 7.90625C8.53125 7.21875 7.96875 6.32812 7.40625 5.23438C6.78125 4.04688 6.25 2.82813 5.8125 1.57812C5.6875 1.17187 5.53125 0.890625 5.34375 0.734375C5.1875 0.578125 4.9375 0.5 4.59375 0.5H1.82812C1.20312 0.5 0.890625 0.765625 0.890625 1.29688C0.890625 1.60938 1 2.15625 1.21875 2.9375C1.5625 3.90625 2.01562 4.95312 2.57812 6.07812C3.29688 7.54688 4.1875 9 5.25 10.4375C6.375 12.0625 7.6875 13.3125 9.1875 14.1875C10.6875 15.0625 12.1719 15.5 13.6406 15.5C14.4844 15.5 15.0469 15.4062 15.3281 15.2188C15.5469 15.0625 15.6406 14.7969 15.6094 14.4219V13.2031C15.6094 12.4531 15.625 11.9688 15.6562 11.75C15.6562 11.4375 15.7031 11.2344 15.7969 11.1406C15.9219 11.0469 16.1094 11 16.3594 11C16.9531 11 17.875 11.5938 19.125 12.7812C19.5 13.1562 19.9219 13.625 20.3906 14.1875C20.8906 14.7188 21.2344 15.0469 21.4219 15.1719C21.7031 15.3906 22.0156 15.5 22.3594 15.5H25.125C25.5 15.5 25.7656 15.4062 25.9219 15.2188C26.1094 15 26.1562 14.7031 26.0625 14.3281C25.7812 13.4531 24.5156 11.8594 22.2656 9.54688L21.8438 9.07812C21.6562 8.85938 21.5625 8.67188 21.5625 8.51562C21.5625 8.35938 21.6562 8.14062 21.8438 7.85938C21.875 7.82812 22.1719 7.40625 22.7344 6.59375C23.3906 5.5625 23.9531 4.65625 24.4219 3.875C25.0781 2.78125 25.4531 2 25.5469 1.53125Z" fill="white"/>
</svg>
