<svg width="33" height="24" viewBox="0 0 33 24" fill="none" xmlns="http://www.w3.org/2000/svg">
<path d="M32.2818 3.87C31.9032 2.405 31.0734 1.165 29.6515 0.775C27.0746 0.065 16.5 0 16.5 0C16.5 0 5.92544 0.065 3.34853 0.775C1.92662 1.165 1.10162 2.405 0.718235 3.87C0.0291177 6.525 0 12 0 12C0 12 0.0291177 17.475 0.718235 20.13C1.09676 21.595 1.92662 22.835 3.34853 23.225C5.92544 23.935 16.5 24 16.5 24C16.5 24 27.0746 23.935 29.6515 23.225C31.0734 22.835 31.9032 21.595 32.2818 20.13C32.9709 17.475 33 12 33 12C33 12 32.9709 6.525 32.2818 3.87Z" fill="white"/>
<path d="M21.8383 11.998L13.103 6.99805V16.998" fill="#C9201B"/>
</svg>
