<svg width="14" height="14" viewBox="0 0 14 14" fill="none" xmlns="http://www.w3.org/2000/svg">
<path fill-rule="evenodd" clip-rule="evenodd" d="M13.7071 1.70718C14.0976 1.31656 14.0976 0.683502 13.7071 0.292877C13.3166 -0.0976257 12.6834 -0.0976257 12.2929 0.292877L6.99999 5.58572L1.70708 0.292877C1.31658 -0.0976257 0.683403 -0.0976257 0.2929 0.292877C-0.0976334 0.683502 -0.0976334 1.31656 0.2929 1.70718L5.58575 7.00003L0.2929 12.2929C-0.0976334 12.6835 -0.0976334 13.3166 0.2929 13.7072C0.683403 14.0977 1.31658 14.0977 1.70708 13.7072L6.99999 8.41434L12.2929 13.7072C12.6834 14.0977 13.3166 14.0977 13.7071 13.7072C14.0976 13.3166 14.0976 12.6835 13.7071 12.2929L8.41424 7.00003L13.7071 1.70718Z" fill="white"/>
</svg>
