<svg width="14" height="14" viewBox="0 0 14 14" fill="none" xmlns="http://www.w3.org/2000/svg">
<path fill-rule="evenodd" clip-rule="evenodd" d="M13.7072 1.70709C14.0977 1.31659 14.0977 0.683411 13.7072 0.292908C13.3165 -0.0976257 12.6835 -0.0976257 12.2928 0.292908L7 5.58575L1.70715 0.292908C1.31653 -0.0976257 0.683472 -0.0976257 0.292847 0.292908C-0.0976562 0.683411 -0.0976562 1.31659 0.292847 1.70709L5.58569 7L0.292847 12.2929C-0.0976562 12.6834 -0.0976562 13.3166 0.292847 13.7071C0.683472 14.0976 1.31653 14.0976 1.70715 13.7071L7 8.41425L12.2928 13.7071C12.6835 14.0976 13.3165 14.0976 13.7072 13.7071C14.0977 13.3166 14.0977 12.6834 13.7072 12.2929L8.41431 7L13.7072 1.70709Z" fill="#D84F0D"/>
</svg>
