<svg width="78" height="79" viewBox="0 0 78 79" fill="none" xmlns="http://www.w3.org/2000/svg">
<path fill-rule="evenodd" clip-rule="evenodd" d="M76.0872 36.7183C75.9754 36.7343 75.8641 36.7503 75.7523 36.7503C74.8113 36.7503 73.9818 36.0777 73.8221 35.1167C72.4984 27.3171 68.8294 20.2062 63.1986 14.5527C57.5682 8.89917 50.4857 5.21558 42.7176 3.88628C41.6649 3.7101 40.9471 2.70113 41.1224 1.62807C41.2977 0.571049 42.3031 -0.149654 43.3714 0.0265085C51.9534 1.48394 59.7532 5.5519 65.9744 11.782C72.179 18.0121 76.2308 25.8437 77.6824 34.4601C77.8738 35.5171 77.1561 36.5421 76.0872 36.7183ZM55.0638 78.0867L55.1058 78.0886C55.4412 78.104 55.7635 78.1187 56.1004 78.1187C59.8489 78.1187 62.9754 76.7574 65.432 74.0828L65.4954 74.0187C66.3729 72.9617 67.3621 72.0007 68.4149 70.9918C69.1326 70.3031 69.866 69.5984 70.5521 68.8617C73.8221 65.4343 73.806 61.0941 70.5203 57.7949L61.4281 48.666C59.8651 47.0324 57.9984 46.1675 56.0208 46.1675C54.0584 46.1675 52.1766 47.0164 50.5653 48.6339L45.1898 54.0312C44.7913 53.8044 44.3817 53.5999 43.9793 53.3991L43.7381 53.2785C43.1322 52.9742 42.574 52.6859 42.0794 52.3816C37.1507 49.2425 32.6844 45.1425 28.4095 39.8734C26.2557 37.1507 24.8363 34.8765 23.8314 32.5382C25.2352 31.257 26.5428 29.9277 27.803 28.6304C27.9876 28.4455 28.1712 28.2581 28.3568 28.0691L28.4007 28.0242L28.4324 27.9918L28.5003 27.9225C28.7332 27.6847 28.9681 27.4449 29.2069 27.205C32.6204 23.7777 32.6204 19.5336 29.2069 16.1222L24.6927 11.5898C24.4261 11.3221 24.1634 11.0545 23.9031 10.7889C23.6492 10.5301 23.3973 10.2732 23.1453 10.0203L22.7767 9.64363L22.7591 9.62586C21.8758 8.72324 20.9715 7.79958 20.0667 6.96128C18.5037 5.39176 16.6531 4.57495 14.6912 4.57495C12.7454 4.57495 10.8631 5.39176 9.23616 6.96128L3.57356 12.6308C1.49983 14.7128 0.319163 17.2433 0.0642802 20.1742C-0.222829 23.8257 0.447093 27.7015 2.16975 32.3781C4.83332 39.6011 8.83723 46.3117 14.7708 53.4867C21.9969 62.1351 30.6741 68.9738 40.596 73.7945C44.3763 75.6043 49.4329 77.7183 55.0638 78.0867ZM17.786 50.9722C12.139 44.1496 8.35871 37.8074 5.85432 31.0168C4.30696 26.8367 3.73274 23.5855 3.972 20.4945C4.14778 18.4925 4.9134 16.8269 6.34895 15.4015L11.9798 9.748C12.8411 8.9152 13.7821 8.48276 14.7073 8.48276C15.6165 8.48276 16.5096 8.9152 17.3709 9.76401C18.3665 10.7003 19.3314 11.6838 20.3421 12.7145L20.3699 12.7429C20.8802 13.2714 21.4066 13.816 21.949 14.3445L26.4632 18.8769C28.3138 20.7347 28.3138 22.5605 26.4632 24.4183C25.9847 24.8988 25.5062 25.3793 25.0438 25.8597L24.7025 26.2063C23.4261 27.5039 22.2137 28.736 20.8802 29.9277L20.8006 30.0078C19.5086 31.305 19.7 32.5543 20.0189 33.4832C20.0267 33.5063 20.0345 33.5257 20.0423 33.545C20.0506 33.5658 20.0584 33.5864 20.0667 33.6113C21.2313 36.43 22.8743 39.1046 25.3944 42.3078C29.9407 47.9292 34.7259 52.3015 40.0218 55.6808C40.6756 56.0972 41.3616 56.4496 42.0316 56.7859C42.6375 57.0902 43.1961 57.3785 43.6903 57.6828C43.722 57.6988 43.7503 57.7148 43.7781 57.7308C43.806 57.7468 43.8343 57.7628 43.866 57.7789C44.3763 58.0351 44.8709 58.1632 45.3812 58.1632C46.6414 58.1632 47.4388 57.3625 47.6942 57.0902L53.3568 51.4046C54.2181 50.5398 55.1434 50.0914 56.0526 50.0914C57.1693 50.0914 58.0784 50.796 58.6688 51.4046L67.7928 60.5656C70.0257 62.8078 69.0047 64.8257 67.7449 66.155C67.2176 66.7243 66.6683 67.2607 66.097 67.8186L65.7347 68.173C64.6663 69.198 63.5657 70.271 62.5604 71.4722C60.8377 73.33 58.7962 74.1949 56.1322 74.1949C55.8773 74.1949 55.6058 74.1789 55.3509 74.1628C50.39 73.8425 45.7962 71.9046 42.3348 70.255C32.8914 65.6906 24.6448 59.2043 17.786 50.9722ZM42.7171 14.2964C41.6488 14.1203 40.6434 14.841 40.4681 15.898C40.2928 16.9711 41.0106 17.98 42.0633 18.1562C46.45 18.9089 50.4378 20.991 53.6278 24.1781C56.8021 27.3652 58.8758 31.3851 59.6253 35.7894C59.785 36.7504 60.6146 37.423 61.5555 37.423C61.6673 37.423 61.7786 37.407 61.8905 37.391C62.9593 37.2148 63.6771 36.1898 63.4857 35.1328C62.6082 29.9277 60.1517 25.1711 56.4031 21.4074C52.6229 17.6277 47.9012 15.1773 42.7171 14.2964ZM54.5858 54.5858C55.3665 53.8047 56.6331 53.8047 57.4139 54.5858L64.9139 62.0858C65.6951 62.8668 65.6951 64.1332 64.9139 64.9142C64.1331 65.6953 62.8665 65.6953 62.0858 64.9142L54.5858 57.4142C53.8045 56.6332 53.8045 55.3668 54.5858 54.5858ZM15.4139 12.5858C14.6331 11.8047 13.3665 11.8047 12.5858 12.5858C11.8045 13.3668 11.8045 14.6332 12.5858 15.4142L20.0858 22.9142C20.8665 23.6953 22.1331 23.6953 22.9139 22.9142C23.6951 22.1332 23.6951 20.8668 22.9139 20.0858L15.4139 12.5858Z" fill="#D84F0D"/>
</svg>
