<svg width="80" height="55" viewBox="0 0 80 55" fill="none" xmlns="http://www.w3.org/2000/svg">
<path fill-rule="evenodd" clip-rule="evenodd" d="M4 13.5C4 11.3706 5.56006 9.03255 8.98291 7.11256C12.3418 5.22835 17.1167 4 22.5 4C27.8833 4 32.6582 5.22835 36.0171 7.11256C39.4399 9.03255 41 11.3706 41 13.5C41 15.6294 39.4399 17.9675 36.0171 19.8874C32.6582 21.7717 27.8833 23 22.5 23C17.1167 23 12.3418 21.7717 8.98291 19.8874C5.56006 17.9675 4 15.6294 4 13.5ZM22 26.9968V27H22.5H41H45H74C74.8896 27 76 27.8913 76 29.5C76 31.1087 74.8896 32 74 32H29C25.1338 32 22 35.1347 22 39.0004V41.9963C16.8354 41.9197 12.2632 40.6607 9.01465 38.7593C5.61377 36.7686 4 34.3106 4 32V21.2762C4.90771 22.0591 5.93018 22.7615 7.02588 23.376C10.9722 25.5899 16.2544 26.9235 22 26.9968ZM79.9819 29C79.7515 25.8335 77.353 23 74 23H45V13.5V13H44.9858C44.7578 9.00851 41.812 5.77698 37.9741 3.62399C33.9136 1.34602 28.4385 0 22.5 0C16.5615 0 11.0864 1.34602 7.02588 3.62399C3.18799 5.77698 0.242188 9.00851 0.0141602 13H0V13.5V32V33H0.0537109C0.472168 36.8645 3.29004 40.0431 6.99414 42.2113C10.9463 44.5251 16.2407 45.9202 22 45.9967V47.9996C22 51.8653 25.1338 55 29 55H74C77.353 55 79.7515 52.1665 79.9819 49H80V48.5V29.5V29H79.9819ZM76 35.6389C75.3843 35.8716 74.7139 36 74 36H29C27.3433 36 26 37.3434 26 39.0004V47.9996C26 49.3059 26.835 50.4173 28 50.8293V46C28 44.8954 28.8955 44 30 44C31.1045 44 32 44.8954 32 46V51H36V46C36 44.8954 36.8955 44 38 44C39.1045 44 40 44.8954 40 46V51H44V46C44 44.8954 44.8955 44 46 44C47.1045 44 48 44.8954 48 46V51H52V46C52 44.8954 52.8955 44 54 44C55.1045 44 56 44.8954 56 46V51H60V46C60 44.8954 60.8955 44 62 44C63.1045 44 64 44.8954 64 46V51H68V46C68 44.8954 68.8955 44 70 44C71.1045 44 72 44.8954 72 46V51H74C74.8896 51 76 50.1087 76 48.5V35.6389ZM41 23V21.2762C40.2725 21.9038 39.4707 22.4797 38.6172 23H41ZM15.1577 12.8604C15.0991 12.9188 15.0601 12.9653 15.0342 13C15.0601 13.0347 15.0991 13.0812 15.1577 13.1396C15.397 13.378 15.8452 13.6847 16.5586 13.9852C17.9775 14.5827 20.0771 15 22.5 15C24.9229 15 27.0225 14.5827 28.4414 13.9852C29.1548 13.6847 29.603 13.378 29.8423 13.1396C29.9009 13.0812 29.9399 13.0347 29.9658 13C29.9399 12.9653 29.9009 12.9188 29.8423 12.8604C29.603 12.622 29.1548 12.3153 28.4414 12.0148C27.0225 11.4173 24.9229 11 22.5 11C20.0771 11 17.9775 11.4173 16.5586 12.0148C15.8452 12.3153 15.397 12.622 15.1577 12.8604ZM22.5 7C19.6763 7 17.0254 7.47809 15.0063 8.3283C14.001 8.75169 13.0576 9.30693 12.3354 10.0256C11.606 10.7519 11 11.7586 11 13C11 14.2414 11.606 15.2481 12.3354 15.9744C13.0576 16.6931 14.001 17.2483 15.0063 17.6717C17.0254 18.5219 19.6763 19 22.5 19C25.3237 19 27.9746 18.5219 29.9937 17.6717C30.999 17.2483 31.9424 16.6931 32.6646 15.9744C33.394 15.2481 34 14.2414 34 13C34 11.7586 33.394 10.7519 32.6646 10.0256C31.9424 9.30693 30.999 8.75169 29.9937 8.3283C27.9746 7.47809 25.3237 7 22.5 7ZM14.9888 13.0768C14.9883 13.0768 14.9893 13.0734 14.9927 13.0665C14.9907 13.0734 14.9893 13.0768 14.9888 13.0768ZM14.9927 12.9335C14.9893 12.9266 14.9883 12.9232 14.9888 12.9232C14.9893 12.9232 14.9907 12.9266 14.9927 12.9335ZM30.0112 13.0768C30.0107 13.0768 30.0093 13.0734 30.0073 13.0665C30.0107 13.0734 30.0117 13.0768 30.0112 13.0768ZM30.0073 12.9335C30.0093 12.9266 30.0107 12.9232 30.0112 12.9232C30.0117 12.9232 30.0107 12.9266 30.0073 12.9335Z" fill="#D84F0D"/>
</svg>
