<svg width="80" height="67" viewBox="0 0 80 67" fill="none" xmlns="http://www.w3.org/2000/svg">
<path fill-rule="evenodd" clip-rule="evenodd" d="M52.0498 4.16476C53.6191 3.62539 55.3286 4.46301 55.8643 6.03393L60.7051 20.2349H12.5C11.3955 20.2349 10.5 21.1303 10.5 22.2349C10.5 23.3395 11.3955 24.2349 12.5 24.2349H63.4536H63.5464H71V31.2349H64C59.5815 31.2349 56 34.8166 56 39.2349C56 43.6532 59.5815 47.2349 64 47.2349H71V59.2349C71 59.6491 70.916 60.0437 70.7642 60.4027C70.4678 61.1037 69.9121 61.6686 69.2178 61.9774C68.8457 62.1429 68.4336 62.2349 68 62.2349H7C6.79297 62.2349 6.59082 62.2139 6.39551 62.1739C5.32129 61.9542 4.45605 61.1604 4.13477 60.127C4.04736 59.8452 4 59.5456 4 59.2349V18.2349C4 16.578 5.34326 15.2349 7 15.2349H19C19.0845 15.2349 19.1675 15.2297 19.249 15.2195C19.5435 15.257 19.8506 15.2292 20.1499 15.1263L52.0498 4.16476ZM71 18.2349V20.2349H64.9312L63.2266 15.2349H68C68.4141 15.2349 68.8091 15.3188 69.168 15.4706C69.8159 15.7447 70.3472 16.2398 70.668 16.8615C70.8804 17.273 71 17.74 71 18.2349ZM59.6504 4.74328L61.8633 11.2349H68L68.0942 11.2355C70.9531 11.2733 73.3989 13.025 74.4497 15.5101C74.8042 16.3476 75 17.2684 75 18.2349V31.2349C77.7612 31.2349 80 33.4735 80 36.2349V42.2349C80 44.9963 77.7612 47.2349 75 47.2349V59.2349C75 60.5034 74.6626 61.6932 74.0728 62.7192C73.314 64.0384 72.1377 65.0871 70.7246 65.6848C69.8872 66.039 68.9663 66.2349 68 66.2349H7C3.13428 66.2349 0 63.101 0 59.2349V18.2349C0 14.3688 3.13428 11.2349 7 11.2349H19C19.0503 11.2349 19.1006 11.2367 19.1499 11.2404L50.75 0.38186C54.4121 -0.876654 58.4009 1.07775 59.6504 4.74328ZM75 43.2349C75.5522 43.2349 76 42.7871 76 42.2349V36.2349C76 35.6827 75.5522 35.2349 75 35.2349H64C61.7905 35.2349 60 37.0257 60 39.2349C60 41.4441 61.7905 43.2349 64 43.2349H75ZM64 41.2349C65.1045 41.2349 66 40.3395 66 39.2349C66 38.1303 65.1045 37.2349 64 37.2349C62.8955 37.2349 62 38.1303 62 39.2349C62 40.3395 62.8955 41.2349 64 41.2349Z" fill="#D84F0D"/>
</svg>
