<svg width="84" height="57" viewBox="0 0 84 57" fill="none" xmlns="http://www.w3.org/2000/svg">
<path fill-rule="evenodd" clip-rule="evenodd" d="M51 4H7C6.44775 4 6 4.44772 6 5V32H46C47.1045 32 48 32.8954 48 34C48 35.1046 47.1045 36 46 36H6V39.5C7.10449 39.5 8 40.3954 8 41.5C8 42.6046 7.10449 43.5 6 43.5V45C6 45.5523 6.44775 46 7 46H12.2231C13.1328 41.992 16.7168 39 21 39C25.2832 39 28.8672 41.992 29.7769 46H52V24V17V6V5C52 4.44772 51.5522 4 51 4ZM2 5V32C0.895508 32 0 32.8954 0 34C0 35.1046 0.895508 36 2 36V39.5C0.895508 39.5 0 40.3954 0 41.5C0 42.6046 0.895508 43.5 2 43.5V45C2 47.7614 4.23877 50 7 50H12.2231C13.1328 54.008 16.7168 57 21 57C25.2832 57 28.8672 54.008 29.7769 50H52H56H57.2231C58.1328 54.008 61.7168 57 66 57C70.2832 57 73.8672 54.008 74.7769 50H80C81.1045 50 82 49.1046 82 48V43.5C83.1045 43.5 84 42.6046 84 41.5C84 40.3954 83.1045 39.5 82 39.5V34C82 33.8843 81.998 33.769 81.9941 33.6543C81.998 33.6034 82 33.5519 82 33.5C82 33.3632 81.9863 33.2297 81.96 33.1006C81.6064 29.1356 78.9395 25.8364 75.3174 24.5633L73.1543 16.6333C73.666 16.271 74 15.6745 74 15C74 10.0294 69.9707 6 65 6H56V5C56 2.23857 53.7612 0 51 0H7C4.23877 0 2 2.23857 2 5ZM74.7769 46H78V43.5C76.8955 43.5 76 42.6046 76 41.5C76 40.3954 76.8955 39.5 78 39.5V35.5H77.5C76.3955 35.5 75.5 34.6046 75.5 33.5C75.5 32.4101 76.3716 31.5238 77.4561 31.5005C76.5083 29.4347 74.4214 28 72 28H56V46H57.2231C58.1328 41.992 61.7168 39 66 39C70.2832 39 73.8672 41.992 74.7769 46ZM71.0176 24H56V17H69.1084L71.0176 24ZM69.584 13H56V10H65C67.0503 10 68.8125 11.2341 69.584 13ZM21 53C23.7612 53 26 50.7614 26 48C26 45.2386 23.7612 43 21 43C18.2388 43 16 45.2386 16 48C16 50.7614 18.2388 53 21 53ZM23 48C23 49.1046 22.1045 50 21 50C19.8955 50 19 49.1046 19 48C19 46.8954 19.8955 46 21 46C22.1045 46 23 46.8954 23 48ZM66 53C68.7612 53 71 50.7614 71 48C71 45.2386 68.7612 43 66 43C63.2388 43 61 45.2386 61 48C61 50.7614 63.2388 53 66 53ZM68 48C68 49.1046 67.1045 50 66 50C64.8955 50 64 49.1046 64 48C64 46.8954 64.8955 46 66 46C67.1045 46 68 46.8954 68 48Z" fill="#D84F0D"/>
</svg>
