<svg width="80" height="63" viewBox="0 0 80 63" fill="none" xmlns="http://www.w3.org/2000/svg">
<path fill-rule="evenodd" clip-rule="evenodd" d="M26.6094 11.2192L28.6973 4.69508C28.8301 4.28122 29.2148 4 29.6499 4H50.3501C50.7852 4 51.1699 4.28122 51.3027 4.69536L53.3906 11.2192C53.9209 12.8759 55.4609 14 57.2002 14H75C75.5522 14 76 14.4478 76 15V58C76 58.5522 75.5522 59 75 59H5C4.44775 59 4 58.5522 4 58V15C4 14.4478 4.44775 14 5 14H22.7998C24.5391 14 26.0791 12.8759 26.6094 11.2192ZM50.3501 0C52.5244 0 54.4497 1.40523 55.1123 3.47612L57.2002 10H75C77.7612 10 80 12.2386 80 15V58C80 60.7614 77.7612 63 75 63H5C2.23877 63 0 60.7614 0 58V15C0 12.2386 2.23877 10 5 10H22.7998L24.8877 3.47612C25.5503 1.40523 27.4756 0 29.6499 0H50.3501ZM51 32C51 38.0751 46.0752 43 40 43C33.9248 43 29 38.0751 29 32C29 25.9249 33.9248 21 40 21C46.0752 21 51 25.9249 51 32ZM55 32C55 40.2843 48.2842 47 40 47C31.7158 47 25 40.2843 25 32C25 23.7157 31.7158 17 40 17C48.2842 17 55 23.7157 55 32ZM14 22C14 23.1046 13.1045 24 12 24C10.8955 24 10 23.1046 10 22C10 20.8954 10.8955 20 12 20C13.1045 20 14 20.8954 14 22ZM22 32C22 30.8954 21.1045 30 20 30C18.8955 30 18 30.8954 18 32C18 44.1503 27.8496 54 40 54C52.1504 54 62 44.1503 62 32C62 30.8954 61.1045 30 60 30C58.8955 30 58 30.8954 58 32C58 41.9411 49.9409 50 40 50C30.0591 50 22 41.9411 22 32Z" fill="#D84F0D"/>
</svg>
