<svg width="70" height="80" viewBox="0 0 70 80" fill="none" xmlns="http://www.w3.org/2000/svg">
<path fill-rule="evenodd" clip-rule="evenodd" d="M4 75C4 75.5523 4.44775 76 5 76H55C55.5522 76 56 75.5523 56 75V55.7774L44.6758 67.1014C44.4243 67.353 44.1406 67.5698 43.8315 67.7462L39 70.5063C36.3477 72.0216 33.3921 69.0658 34.9072 66.4133L37.667 61.5818C37.8438 61.2729 38.0605 60.989 38.312 60.7375L40.0493 59H11.7998C10.8057 59 10 58.1046 10 57C10 55.8954 10.8057 55 11.7998 55H44.0493L48.0498 50.9994L48 51H12C10.8955 51 10 50.1046 10 49C10 47.8954 10.8955 47 12 47H48C49.1045 47 50 47.8954 50 49L49.9995 49.05L56 43.0494V16H50C46.6865 16 44 13.3137 44 10V4H5C4.44775 4 4 4.44772 4 5V75ZM48 5.65671V10C48 11.1046 48.8955 12 50 12H54.3433L48 5.65671ZM60 39.0493V14.0711C60 12.745 59.4731 11.4732 58.5356 10.5355L49.4644 1.46448C48.5269 0.526794 47.2549 0 45.9287 0H5C2.23877 0 0 2.23859 0 5V75C0 77.7614 2.23877 80 5 80H55C57.7612 80 60 77.7614 60 75V51.7774L68.4136 43.364C69.9756 41.8018 69.9756 39.2692 68.4136 37.7071L67.7065 37C66.144 35.4379 63.6118 35.4379 62.0493 37L60 39.0493ZM64.8779 39.8284L65.585 40.5355L41.8477 64.273L40.1982 65.2152L41.1406 63.5659L64.8779 39.8284ZM12 23C10.8955 23 10 23.8954 10 25C10 26.1046 10.8955 27 12 27H48C49.1045 27 50 26.1046 50 25C50 23.8954 49.1045 23 48 23H12ZM12 31C10.8955 31 10 31.8954 10 33C10 34.1046 10.8955 35 12 35H48C49.1045 35 50 34.1046 50 33C50 31.8954 49.1045 31 48 31H12ZM10 41C10 39.8954 10.8955 39 12 39H48C49.1045 39 50 39.8954 50 41C50 42.1046 49.1045 43 48 43H12C10.8955 43 10 42.1046 10 41ZM12 66C10.8955 66 10 66.8954 10 68C10 69.1046 10.8955 70 12 70H28C29.1045 70 30 69.1046 30 68C30 66.8954 29.1045 66 28 66H12Z" fill="#D84F0D"/>
</svg>
