<svg width="16" height="12" viewBox="0 0 16 12" fill="none" xmlns="http://www.w3.org/2000/svg">
<path d="M14.5 2C14.9062 2 15.25 2.15625 15.5625 2.4375C15.8438 2.75 16 3.09375 16 3.5V12.5C16 12.9375 15.8438 13.2812 15.5625 13.5625C15.25 13.875 14.9062 14 14.5 14H1.5C1.0625 14 0.71875 13.875 0.4375 13.5625C0.125 13.2812 0 12.9375 0 12.5V3.5C0 3.09375 0.125 2.75 0.4375 2.4375C0.71875 2.15625 1.0625 2 1.5 2H14.5ZM14.5 3.5H1.5V4.78125C2.21875 5.375 3.625 6.46875 5.71875 8.09375L6 8.34375C6.40625 8.71875 6.75 8.96875 7 9.09375C7.375 9.375 7.71875 9.5 8 9.5C8.25 9.5 8.59375 9.375 9 9.09375C9.25 8.96875 9.5625 8.71875 10 8.34375L10.2812 8.09375C12.3438 6.5 13.75 5.40625 14.5 4.78125V3.5ZM1.5 12.5H14.5V6.6875L10.875 9.5625C10.3438 10 9.90625 10.3125 9.59375 10.5C9.03125 10.8438 8.5 11 8 11C7.5 11 6.9375 10.8438 6.375 10.5C6.0625 10.3125 5.625 10 5.09375 9.5625L1.5 6.6875V12.5Z" transform="translate(0 -2)" fill="white" fill-opacity="0.25"/>
</svg>
