<svg width="17" height="16" viewBox="0 0 17 16" fill="none" xmlns="http://www.w3.org/2000/svg">
<path d="M14.9062 0.71875H14.875C15.1875 0.78125 15.4688 0.96875 15.6875 1.21875C15.875 1.46875 16 1.78125 16 2.125C16 4.65625 15.3438 7 14.0938 9.125C12.8438 11.25 11.1875 12.9062 9.125 14.0938C6.9375 15.375 4.59375 16 2.09375 16C1.75 16 1.4375 15.9062 1.1875 15.6875C0.9375 15.5 0.78125 15.2188 0.71875 14.875L0.03125 11.9375C-0.0625 11.625 -0.03125 11.2812 0.125 10.9688C0.28125 10.6562 0.53125 10.4375 0.875 10.3125L4.03125 8.9375C4.3125 8.8125 4.625 8.8125 4.9375 8.875C5.25 8.96875 5.5 9.125 5.71875 9.34375L6.71875 10.5938C8.40625 9.71875 9.6875 8.40625 10.625 6.71875L9.375 5.71875C9.125 5.53125 8.9375 5.25 8.875 4.9375C8.8125 4.625 8.84375 4.34375 8.96875 4.03125L10.3125 0.875C10.4375 0.5625 10.6562 0.3125 10.9688 0.15625C11.2812 0 11.5938 -0.03125 11.9375 0.03125L14.9062 0.71875ZM2.15625 14.5C4.375 14.5 6.4375 13.9375 8.375 12.8125C10.2188 11.7188 11.6875 10.25 12.8125 8.375C13.9375 6.46875 14.5 4.40625 14.5 2.15625L11.6562 1.5L10.3438 4.59375L12.4688 6.3125C11.75 7.875 10.9375 9.09375 10 10C9.0625 10.9375 7.84375 11.75 6.3125 12.4688L4.59375 10.3438L1.5 11.6562L2.15625 14.5Z" transform="translate(1)" fill="white" fill-opacity="0.25"/>
</svg>
