<svg width="50" height="50" viewBox="0 0 50 50" fill="none" xmlns="http://www.w3.org/2000/svg">
<path d="M16.3125 2.5C16.7695 2.5 17.1562 2.67578 17.5078 2.99219C17.8242 3.34375 18 3.73047 18 4.1875V14.3125C18 14.8047 17.8242 15.1914 17.5078 15.5078C17.1562 15.8594 16.7695 16 16.3125 16H1.6875C1.19531 16 0.808594 15.8594 0.492188 15.5078C0.140625 15.1914 0 14.8047 0 14.3125V4.1875C0 3.73047 0.140625 3.34375 0.492188 2.99219C0.808594 2.67578 1.19531 2.5 1.6875 2.5H16.3125ZM16.3125 4.1875H1.6875V5.62891C2.49609 6.29688 4.07812 7.52734 6.43359 9.35547L6.75 9.63672C7.20703 10.0586 7.59375 10.3398 7.875 10.4805C8.29688 10.7969 8.68359 10.9375 9 10.9375C9.28125 10.9375 9.66797 10.7969 10.125 10.4805C10.4062 10.3398 10.7578 10.0586 11.25 9.63672L11.5664 9.35547C13.8867 7.5625 15.4688 6.33203 16.3125 5.62891V4.1875ZM1.6875 14.3125H16.3125V7.77344L12.2344 11.0078C11.6367 11.5 11.1445 11.8516 10.793 12.0625C10.1602 12.4492 9.5625 12.625 9 12.625C8.4375 12.625 7.80469 12.4492 7.17188 12.0625C6.82031 11.8516 6.32812 11.5 5.73047 11.0078L1.6875 7.77344V14.3125Z" transform="translate(16 16)" fill="white"/>
<circle cx="25" cy="25" r="24" stroke="white" stroke-opacity="0.15" stroke-width="2"/>
</svg>
